<?xml version="1.0" encoding="UTF-8"?>
<svg xmlns="http://www.w3.org/2000/svg" xmlns:xlink="http://www.w3.org/1999/xlink" width="240pt" height="416.250001pt" viewBox="0 0 240 416.250001" version="1.2">
<defs>
<clipPath id="clip1">
  <path d="M 0.390625 0 L 239 0 L 239 413.253906 L 0.390625 413.253906 Z M 0.390625 0 "/>
</clipPath>
</defs>
<g id="surface1">
<path style=" stroke:none;fill-rule:nonzero;fill:rgb(100%,100%,100%);fill-opacity:1;" d="M 210.644531 215.832031 L 235.042969 215.832031 L 235.042969 240.230469 L 210.644531 240.230469 Z M 210.644531 215.832031 "/>
<g clip-path="url(#clip1)" clip-rule="nonzero">
<path style=" stroke:none;fill-rule:nonzero;fill:rgb(100%,100%,100%);fill-opacity:1;" d="M 24.777344 200.730469 L 108.171875 200.730469 L 108.171875 36.730469 L 24.777344 36.730469 Z M 24.777344 387.605469 L 108.171875 387.605469 L 108.171875 223.554688 L 24.777344 223.554688 Z M 122.988281 200.730469 L 206.40625 200.730469 L 206.40625 36.730469 L 122.988281 36.730469 Z M 122.988281 387.605469 L 206.40625 387.605469 L 206.40625 223.554688 L 122.988281 223.554688 Z M 222.308594 234.484375 C 227.292969 234.484375 231.332031 230.296875 231.332031 225.140625 C 231.332031 219.976562 227.292969 215.808594 222.308594 215.808594 C 217.324219 215.808594 213.289062 219.976562 213.289062 225.140625 C 213.289062 230.296875 217.324219 234.484375 222.308594 234.484375 Z M 238.703125 -0.0273438 L 238.703125 413.28125 L 0.898438 413.28125 L 0.898438 -0.0273438 L 238.703125 -0.0273438 "/>
</g>
</g>
</svg>
