<?xml version="1.0" encoding="UTF-8"?>
<svg xmlns="http://www.w3.org/2000/svg" xmlns:xlink="http://www.w3.org/1999/xlink" width="487.5pt" height="487.499999pt" viewBox="0 0 487.5 487.499999" version="1.2">
<defs>
<clipPath id="clip1">
  <path d="M 310 160 L 340 160 L 340 191 L 310 191 Z M 310 160 "/>
</clipPath>
<clipPath id="clip2">
  <path d="M 328.195312 160.460938 L 340.066406 178.6875 L 321.839844 190.554688 L 309.972656 172.332031 Z M 328.195312 160.460938 "/>
</clipPath>
<clipPath id="clip3">
  <path d="M 328.195312 160.460938 L 340.066406 178.6875 L 321.839844 190.554688 L 309.972656 172.332031 Z M 328.195312 160.460938 "/>
</clipPath>
<clipPath id="clip4">
  <path d="M 303.226562 299.179688 L 324.976562 299.179688 L 324.976562 320.929688 L 303.226562 320.929688 Z M 303.226562 299.179688 "/>
</clipPath>
<clipPath id="clip5">
  <path d="M 244 0 L 487 0 L 487 487 L 244 487 Z M 244 0 "/>
</clipPath>
<clipPath id="clip6">
  <path d="M 0 0 L 243.609375 0 L 243.609375 487 L 0 487 Z M 0 0 "/>
</clipPath>
<clipPath id="clip7">
  <path d="M 22 0 L 481 0 L 481 467 L 22 467 Z M 22 0 "/>
</clipPath>
<clipPath id="clip8">
  <path d="M 305.730469 0.00390625 L 480.601562 164.378906 L 196.535156 466.578125 L 21.664062 302.199219 Z M 305.730469 0.00390625 "/>
</clipPath>
<clipPath id="clip9">
  <path d="M 480.582031 164.363281 L 305.714844 -0.015625 L 21.644531 302.183594 L 196.515625 466.5625 Z M 480.582031 164.363281 "/>
</clipPath>
<clipPath id="clip10">
  <path d="M 6 0 L 465 0 L 465 467 L 6 467 Z M 6 0 "/>
</clipPath>
<clipPath id="clip11">
  <path d="M 6.632812 163.957031 L 181.738281 -0.171875 L 465.371094 302.4375 L 290.261719 466.5625 Z M 6.632812 163.957031 "/>
</clipPath>
<clipPath id="clip12">
  <path d="M 181.722656 -0.15625 L 6.613281 163.972656 L 290.246094 466.578125 L 465.351562 302.453125 Z M 181.722656 -0.15625 "/>
</clipPath>
<clipPath id="clip13">
  <path d="M 0 0 L 25 0 L 25 487 L 0 487 Z M 0 0 "/>
</clipPath>
<clipPath id="clip14">
  <path d="M 462 0 L 487 0 L 487 487 L 462 487 Z M 462 0 "/>
</clipPath>
</defs>
<g id="surface1">
<g clip-path="url(#clip1)" clip-rule="nonzero">
<g clip-path="url(#clip2)" clip-rule="nonzero">
<g clip-path="url(#clip3)" clip-rule="nonzero">
<path style=" stroke:none;fill-rule:nonzero;fill:rgb(100%,100%,100%);fill-opacity:1;" d="M 321.601562 190.144531 L 310.25 172.71875 C 310.183594 172.613281 310.164062 172.496094 310.1875 172.375 C 310.214844 172.253906 310.277344 172.160156 310.382812 172.089844 L 327.8125 160.738281 C 327.914062 160.667969 328.027344 160.648438 328.152344 160.675781 C 328.273438 160.699219 328.371094 160.765625 328.4375 160.871094 L 339.789062 178.300781 C 339.859375 178.402344 339.882812 178.519531 339.855469 178.640625 C 339.828125 178.765625 339.761719 178.859375 339.65625 178.925781 L 322.226562 190.277344 C 322.125 190.34375 322.007812 190.367188 321.886719 190.339844 C 321.765625 190.316406 321.667969 190.25 321.601562 190.144531 Z M 321.601562 190.144531 "/>
</g>
</g>
</g>
<g clip-path="url(#clip4)" clip-rule="nonzero">
<path style=" stroke:none;fill-rule:nonzero;fill:rgb(100%,100%,100%);fill-opacity:1;" d="M 324.5 320.910156 L 303.703125 320.910156 C 303.578125 320.90625 303.46875 320.863281 303.382812 320.773438 C 303.292969 320.6875 303.25 320.578125 303.25 320.453125 L 303.25 299.65625 C 303.246094 299.53125 303.292969 299.421875 303.378906 299.335938 C 303.46875 299.246094 303.574219 299.203125 303.703125 299.203125 L 324.5 299.203125 C 324.625 299.199219 324.734375 299.246094 324.824219 299.332031 C 324.910156 299.421875 324.957031 299.53125 324.953125 299.65625 L 324.953125 320.453125 C 324.953125 320.578125 324.910156 320.6875 324.820312 320.777344 C 324.730469 320.863281 324.625 320.910156 324.5 320.910156 Z M 324.5 320.910156 "/>
</g>
<g clip-path="url(#clip5)" clip-rule="nonzero">
<path style=" stroke:none;fill-rule:nonzero;fill:rgb(100%,100%,100%);fill-opacity:1;" d="M 272.6875 236.792969 L 371.15625 236.792969 L 371.15625 43.332031 L 272.6875 43.332031 Z M 272.6875 457.242188 L 371.15625 457.242188 L 371.15625 263.71875 L 272.6875 263.71875 Z M 388.65625 236.792969 L 487.15625 236.792969 L 487.15625 43.332031 L 388.65625 43.332031 Z M 388.65625 457.242188 L 487.15625 457.242188 L 487.15625 263.71875 L 388.65625 263.71875 Z M 505.933594 276.613281 C 511.816406 276.613281 516.589844 271.667969 516.589844 265.589844 C 516.589844 259.496094 511.816406 254.578125 505.933594 254.578125 C 500.046875 254.578125 495.28125 259.496094 495.28125 265.589844 C 495.28125 271.667969 500.046875 276.613281 505.933594 276.613281 Z M 525.292969 -0.03125 L 525.292969 487.53125 L 244.492188 487.53125 L 244.492188 -0.03125 L 525.292969 -0.03125 "/>
</g>
<g clip-path="url(#clip6)" clip-rule="nonzero">
<path style=" stroke:none;fill-rule:nonzero;fill:rgb(100%,100%,100%);fill-opacity:1;" d="M 214.8125 236.636719 L 116.34375 236.636719 L 116.34375 43.175781 L 214.8125 43.175781 Z M 214.8125 457.085938 L 116.34375 457.085938 L 116.34375 263.5625 L 214.8125 263.5625 Z M 98.84375 236.636719 L 0.34375 236.636719 L 0.34375 43.175781 L 98.84375 43.175781 Z M 98.84375 457.085938 L 0.34375 457.085938 L 0.34375 263.5625 L 98.84375 263.5625 Z M -18.433594 276.457031 C -24.316406 276.457031 -29.089844 271.511719 -29.089844 265.433594 C -29.089844 259.339844 -24.316406 254.421875 -18.433594 254.421875 C -12.546875 254.421875 -7.78125 259.339844 -7.78125 265.433594 C -7.78125 271.511719 -12.546875 276.457031 -18.433594 276.457031 Z M -37.792969 -0.1875 L -37.792969 487.371094 L 243.007812 487.371094 L 243.007812 -0.1875 L -37.792969 -0.1875 "/>
</g>
<g clip-path="url(#clip7)" clip-rule="nonzero">
<g clip-path="url(#clip8)" clip-rule="nonzero">
<g clip-path="url(#clip9)" clip-rule="nonzero">
<path style=" stroke:none;fill-rule:nonzero;fill:rgb(100%,100%,100%);fill-opacity:1;" d="M 185.589844 163.554688 L 246.652344 220.957031 L 359.382812 101.03125 L 298.316406 43.628906 Z M 57.132812 300.210938 L 118.195312 357.609375 L 230.964844 237.648438 L 169.898438 180.246094 Z M 257.503906 231.15625 L 318.585938 288.574219 L 431.316406 168.648438 L 370.234375 111.230469 Z M 129.046875 367.8125 L 190.128906 425.226562 L 302.898438 305.265625 L 241.816406 247.847656 Z M 307.027344 324.203125 C 310.675781 327.632812 316.515625 327.351562 320.054688 323.582031 C 323.609375 319.804688 323.515625 313.976562 319.863281 310.542969 C 316.214844 307.113281 310.394531 307.382812 306.84375 311.160156 C 303.300781 314.929688 303.375 320.773438 307.027344 324.203125 Z M 480.230469 164 L 196.128906 466.234375 L 22 302.550781 L 306.101562 0.316406 L 480.230469 164 "/>
</g>
</g>
</g>
<g clip-path="url(#clip10)" clip-rule="nonzero">
<g clip-path="url(#clip11)" clip-rule="nonzero">
<g clip-path="url(#clip12)" clip-rule="nonzero">
<path style=" stroke:none;fill-rule:nonzero;fill:rgb(100%,100%,100%);fill-opacity:1;" d="M 162.261719 294.199219 L 223.40625 236.886719 L 110.851562 116.800781 L 49.703125 174.113281 Z M 290.519531 431.039062 L 351.667969 373.726562 L 239.074219 253.601562 L 177.925781 310.914062 Z M 234.273438 226.699219 L 295.4375 169.371094 L 182.882812 49.285156 L 121.71875 106.613281 Z M 362.53125 363.539062 L 423.699219 306.210938 L 311.105469 186.085938 L 249.941406 243.414062 Z M 330.265625 183.164062 C 333.921875 179.738281 334.007812 173.890625 330.46875 170.117188 C 326.925781 166.335938 321.101562 166.058594 317.445312 169.484375 C 313.792969 172.910156 313.695312 178.734375 317.238281 182.519531 C 320.777344 186.292969 326.609375 186.589844 330.265625 183.164062 Z M 181.335938 0.171875 L 465 302.816406 L 290.632812 466.25 L 6.96875 163.605469 L 181.335938 0.171875 "/>
</g>
</g>
</g>
<g clip-path="url(#clip13)" clip-rule="nonzero">
<path style=" stroke:none;fill-rule:nonzero;fill:rgb(100%,100%,100%);fill-opacity:1;" d="M 0 -0.136719 L 24.976562 -0.136719 L 24.976562 487.296875 L 0 487.296875 Z M 0 -0.136719 "/>
</g>
<g clip-path="url(#clip14)" clip-rule="nonzero">
<path style=" stroke:none;fill-rule:nonzero;fill:rgb(100%,100%,100%);fill-opacity:1;" d="M 462.570312 -0.136719 L 487.550781 -0.136719 L 487.550781 487.296875 L 462.570312 487.296875 Z M 462.570312 -0.136719 "/>
</g>
</g>
</svg>
