<?xml version="1.0" encoding="UTF-8"?>
<svg xmlns="http://www.w3.org/2000/svg" xmlns:xlink="http://www.w3.org/1999/xlink" width="240pt" height="416.250001pt" viewBox="0 0 240 416.250001" version="1.2">
<defs>
<clipPath id="clip1">
  <path d="M 1 0 L 239.605469 0 L 239.605469 413.253906 L 1 413.253906 Z M 1 0 "/>
</clipPath>
</defs>
<g id="surface1">
<path style=" stroke:none;fill-rule:nonzero;fill:rgb(3.919983%,3.919983%,3.919983%);fill-opacity:1;" d="M 210.644531 215.832031 L 235.042969 215.832031 L 235.042969 240.230469 L 210.644531 240.230469 Z M 210.644531 215.832031 "/>
<g clip-path="url(#clip1)" clip-rule="nonzero">
<path style=" stroke:none;fill-rule:nonzero;fill:rgb(3.919983%,3.919983%,3.919983%);fill-opacity:1;" d="M 25.347656 200.730469 L 108.742188 200.730469 L 108.742188 36.730469 L 25.347656 36.730469 Z M 25.347656 387.605469 L 108.742188 387.605469 L 108.742188 223.554688 L 25.347656 223.554688 Z M 123.5625 200.730469 L 206.976562 200.730469 L 206.976562 36.730469 L 123.5625 36.730469 Z M 123.5625 387.605469 L 206.976562 387.605469 L 206.976562 223.554688 L 123.5625 223.554688 Z M 222.878906 234.484375 C 227.863281 234.484375 231.902344 230.296875 231.902344 225.140625 C 231.902344 219.976562 227.863281 215.808594 222.878906 215.808594 C 217.894531 215.808594 213.859375 219.976562 213.859375 225.140625 C 213.859375 230.296875 217.894531 234.484375 222.878906 234.484375 Z M 239.273438 -0.0273438 L 239.273438 413.28125 L 1.46875 413.28125 L 1.46875 -0.0273438 L 239.273438 -0.0273438 "/>
</g>
</g>
</svg>
