<?xml version="1.0" encoding="UTF-8"?>
<svg xmlns="http://www.w3.org/2000/svg" xmlns:xlink="http://www.w3.org/1999/xlink" width="1012.5pt" height="487.499991pt" viewBox="0 0 1012.5 487.499991" version="1.2">
<defs>
<clipPath id="clip1">
  <path d="M 0.269531 478 L 91 478 L 91 487 L 0.269531 487 Z M 0.269531 478 "/>
</clipPath>
<clipPath id="clip2">
  <path d="M 71 0 L 91 0 L 91 487 L 71 487 Z M 71 0 "/>
</clipPath>
<clipPath id="clip3">
  <path d="M 0.269531 0 L 72 0 L 72 479 L 0.269531 479 Z M 0.269531 0 "/>
</clipPath>
<clipPath id="clip4">
  <path d="M 71 478 L 446 478 L 446 487 L 71 487 Z M 71 478 "/>
</clipPath>
<clipPath id="clip5">
  <path d="M 426 0 L 446 0 L 446 487 L 426 487 Z M 426 0 "/>
</clipPath>
<clipPath id="clip6">
  <path d="M 425 478 L 518 478 L 518 487 L 425 487 Z M 425 478 "/>
</clipPath>
<clipPath id="clip7">
  <path d="M 498 0 L 518 0 L 518 487 L 498 487 Z M 498 0 "/>
</clipPath>
<clipPath id="clip8">
  <path d="M 498 478 L 592 478 L 592 487 L 498 487 Z M 498 478 "/>
</clipPath>
<clipPath id="clip9">
  <path d="M 572 0 L 592 0 L 592 487 L 572 487 Z M 572 0 "/>
</clipPath>
<clipPath id="clip10">
  <path d="M 571 478 L 947 478 L 947 487 L 571 487 Z M 571 478 "/>
</clipPath>
<clipPath id="clip11">
  <path d="M 927 0 L 947 0 L 947 487 L 927 487 Z M 927 0 "/>
</clipPath>
<clipPath id="clip12">
  <path d="M 927 478 L 1011.730469 478 L 1011.730469 487 L 927 487 Z M 927 478 "/>
</clipPath>
<clipPath id="clip13">
  <path d="M 1006 0 L 1011.730469 0 L 1011.730469 487 L 1006 487 Z M 1006 0 "/>
</clipPath>
<clipPath id="clip14">
  <path d="M 477.839844 0 L 538.554688 0 L 538.554688 18.328125 L 477.839844 18.328125 Z M 477.839844 0 "/>
</clipPath>
<clipPath id="clip15">
  <path d="M 477.839844 0 L 538.554688 0 L 538.554688 24.652344 L 477.839844 24.652344 Z M 477.839844 0 "/>
</clipPath>
<clipPath id="clip16">
  <path d="M 477.839844 17.980469 L 538.554688 17.980469 L 538.554688 48.714844 L 477.839844 48.714844 Z M 477.839844 17.980469 "/>
</clipPath>
<clipPath id="clip17">
  <path d="M 477.839844 24.359375 L 538.554688 24.359375 L 538.554688 55.089844 L 477.839844 55.089844 Z M 477.839844 24.359375 "/>
</clipPath>
<clipPath id="clip18">
  <path d="M 477.839844 53.292969 L 538.554688 53.292969 L 538.554688 84.027344 L 477.839844 84.027344 Z M 477.839844 53.292969 "/>
</clipPath>
<clipPath id="clip19">
  <path d="M 477.839844 59.617188 L 538.554688 59.617188 L 538.554688 90.347656 L 477.839844 90.347656 Z M 477.839844 59.617188 "/>
</clipPath>
<clipPath id="clip20">
  <path d="M 477.839844 90.054688 L 538.554688 90.054688 L 538.554688 120.785156 L 477.839844 120.785156 Z M 477.839844 90.054688 "/>
</clipPath>
<clipPath id="clip21">
  <path d="M 477.839844 94.699219 L 538.554688 94.699219 L 538.554688 125.433594 L 477.839844 125.433594 Z M 477.839844 94.699219 "/>
</clipPath>
<clipPath id="clip22">
  <path d="M 477.839844 120.492188 L 538.554688 120.492188 L 538.554688 151.226562 L 477.839844 151.226562 Z M 477.839844 120.492188 "/>
</clipPath>
<clipPath id="clip23">
  <path d="M 477.839844 124.972656 L 538.554688 124.972656 L 538.554688 155.707031 L 477.839844 155.707031 Z M 477.839844 124.972656 "/>
</clipPath>
<clipPath id="clip24">
  <path d="M 477.839844 149.089844 L 538.554688 149.089844 L 538.554688 179.824219 L 477.839844 179.824219 Z M 477.839844 149.089844 "/>
</clipPath>
<clipPath id="clip25">
  <path d="M 477.839844 155.414062 L 538.554688 155.414062 L 538.554688 186.144531 L 477.839844 186.144531 Z M 477.839844 155.414062 "/>
</clipPath>
<clipPath id="clip26">
  <path d="M 477.839844 185.234375 L 538.554688 185.234375 L 538.554688 215.964844 L 477.839844 215.964844 Z M 477.839844 185.234375 "/>
</clipPath>
<clipPath id="clip27">
  <path d="M 477.839844 191.554688 L 538.554688 191.554688 L 538.554688 222.289062 L 477.839844 222.289062 Z M 477.839844 191.554688 "/>
</clipPath>
<clipPath id="clip28">
  <path d="M 477.839844 217.804688 L 538.554688 217.804688 L 538.554688 248.539062 L 477.839844 248.539062 Z M 477.839844 217.804688 "/>
</clipPath>
<clipPath id="clip29">
  <path d="M 477.839844 224.128906 L 538.554688 224.128906 L 538.554688 254.863281 L 477.839844 254.863281 Z M 477.839844 224.128906 "/>
</clipPath>
<clipPath id="clip30">
  <path d="M 477.839844 253.328125 L 538.554688 253.328125 L 538.554688 284.0625 L 477.839844 284.0625 Z M 477.839844 253.328125 "/>
</clipPath>
<clipPath id="clip31">
  <path d="M 477.839844 259.652344 L 538.554688 259.652344 L 538.554688 290.382812 L 477.839844 290.382812 Z M 477.839844 259.652344 "/>
</clipPath>
<clipPath id="clip32">
  <path d="M 477.839844 292.660156 L 538.554688 292.660156 L 538.554688 323.394531 L 477.839844 323.394531 Z M 477.839844 292.660156 "/>
</clipPath>
<clipPath id="clip33">
  <path d="M 477.839844 299.449219 L 538.554688 299.449219 L 538.554688 330.183594 L 477.839844 330.183594 Z M 477.839844 299.449219 "/>
</clipPath>
<clipPath id="clip34">
  <path d="M 477.839844 325.59375 L 538.554688 325.59375 L 538.554688 356.328125 L 477.839844 356.328125 Z M 477.839844 325.59375 "/>
</clipPath>
<clipPath id="clip35">
  <path d="M 477.839844 331.917969 L 538.554688 331.917969 L 538.554688 362.648438 L 477.839844 362.648438 Z M 477.839844 331.917969 "/>
</clipPath>
<clipPath id="clip36">
  <path d="M 477.839844 359.535156 L 538.554688 359.535156 L 538.554688 390.269531 L 477.839844 390.269531 Z M 477.839844 359.535156 "/>
</clipPath>
<clipPath id="clip37">
  <path d="M 477.839844 365.859375 L 538.554688 365.859375 L 538.554688 396.59375 L 477.839844 396.59375 Z M 477.839844 365.859375 "/>
</clipPath>
<clipPath id="clip38">
  <path d="M 477.839844 389.972656 L 538.554688 389.972656 L 538.554688 420.707031 L 477.839844 420.707031 Z M 477.839844 389.972656 "/>
</clipPath>
<clipPath id="clip39">
  <path d="M 477.839844 396.296875 L 538.554688 396.296875 L 538.554688 427.03125 L 477.839844 427.03125 Z M 477.839844 396.296875 "/>
</clipPath>
<clipPath id="clip40">
  <path d="M 477.839844 426.734375 L 538.554688 426.734375 L 538.554688 457.46875 L 477.839844 457.46875 Z M 477.839844 426.734375 "/>
</clipPath>
<clipPath id="clip41">
  <path d="M 477.839844 433.746094 L 538.554688 433.746094 L 538.554688 464.476562 L 477.839844 464.476562 Z M 477.839844 433.746094 "/>
</clipPath>
</defs>
<g id="surface1">
<g clip-path="url(#clip1)" clip-rule="nonzero">
<path style=" stroke:none;fill-rule:nonzero;fill:rgb(12.939453%,39.219666%,60.389709%);fill-opacity:1;" d="M 71.390625 478.34375 L -7.394531 478.34375 L 11.386719 497.128906 L 90.175781 497.128906 Z M 71.390625 478.34375 "/>
</g>
<g clip-path="url(#clip2)" clip-rule="nonzero">
<path style=" stroke:none;fill-rule:nonzero;fill:rgb(10.978699%,61.569214%,84.309387%);fill-opacity:1;" d="M 90.175781 18.785156 L 71.390625 0.078125 L 71.390625 478.34375 L 90.175781 497.128906 Z M 90.175781 18.785156 "/>
</g>
<g clip-path="url(#clip3)" clip-rule="nonzero">
<path style=" stroke:none;fill-rule:nonzero;fill:rgb(10.978699%,61.569214%,84.309387%);fill-opacity:1;" d="M 11.386719 0 L -7.394531 0 L -7.394531 478.34375 L 71.390625 478.34375 L 71.390625 0 Z M 11.386719 0 "/>
</g>
<g clip-path="url(#clip4)" clip-rule="nonzero">
<path style=" stroke:none;fill-rule:nonzero;fill:rgb(80.389404%,79.998779%,78.039551%);fill-opacity:1;" d="M 426.90625 478.175781 L 71.105469 478.175781 L 89.886719 496.957031 L 445.691406 496.957031 Z M 426.90625 478.175781 "/>
</g>
<g clip-path="url(#clip5)" clip-rule="nonzero">
<path style=" stroke:none;fill-rule:nonzero;fill:rgb(60.389709%,65.489197%,69.799805%);fill-opacity:1;" d="M 445.691406 18.777344 L 426.90625 0.078125 L 426.90625 478.175781 L 445.691406 496.957031 Z M 445.691406 18.777344 "/>
</g>
<path style=" stroke:none;fill-rule:nonzero;fill:rgb(93.728638%,92.158508%,88.62915%);fill-opacity:1;" d="M 89.886719 0 L 71.105469 0 L 71.105469 478.175781 L 426.90625 478.175781 L 426.90625 0 Z M 89.886719 0 "/>
<g clip-path="url(#clip6)" clip-rule="nonzero">
<path style=" stroke:none;fill-rule:nonzero;fill:rgb(2.749634%,32.939148%,47.44873%);fill-opacity:1;" d="M 498.414062 478.257812 L 425.859375 478.257812 L 444.644531 497.039062 L 517.199219 497.039062 Z M 498.414062 478.257812 "/>
</g>
<g clip-path="url(#clip7)" clip-rule="nonzero">
<path style=" stroke:none;fill-rule:nonzero;fill:rgb(60.389709%,65.489197%,69.799805%);fill-opacity:1;" d="M 517.199219 18.78125 L 498.414062 0.078125 L 498.414062 478.257812 L 517.199219 497.039062 Z M 517.199219 18.78125 "/>
</g>
<path style=" stroke:none;fill-rule:nonzero;fill:rgb(7.058716%,45.098877%,63.529968%);fill-opacity:1;" d="M 444.644531 0 L 425.859375 0 L 425.859375 478.257812 L 498.414062 478.257812 L 498.414062 0 Z M 444.644531 0 "/>
<g clip-path="url(#clip8)" clip-rule="nonzero">
<path style=" stroke:none;fill-rule:nonzero;fill:rgb(2.749634%,32.939148%,47.44873%);fill-opacity:1;" d="M 572.746094 478.324219 L 498.003906 478.324219 L 516.785156 497.109375 L 591.53125 497.109375 Z M 572.746094 478.324219 "/>
</g>
<g clip-path="url(#clip9)" clip-rule="nonzero">
<path style=" stroke:none;fill-rule:nonzero;fill:rgb(60.389709%,65.489197%,69.799805%);fill-opacity:1;" d="M 591.53125 18.785156 L 572.746094 0.078125 L 572.746094 478.324219 L 591.53125 497.109375 Z M 591.53125 18.785156 "/>
</g>
<path style=" stroke:none;fill-rule:nonzero;fill:rgb(7.058716%,45.098877%,63.529968%);fill-opacity:1;" d="M 516.785156 0 L 498.003906 0 L 498.003906 478.324219 L 572.746094 478.324219 L 572.746094 0 Z M 516.785156 0 "/>
<g clip-path="url(#clip10)" clip-rule="nonzero">
<path style=" stroke:none;fill-rule:nonzero;fill:rgb(80.389404%,79.998779%,78.039551%);fill-opacity:1;" d="M 927.625 478.175781 L 571.824219 478.175781 L 590.609375 496.957031 L 946.410156 496.957031 Z M 927.625 478.175781 "/>
</g>
<g clip-path="url(#clip11)" clip-rule="nonzero">
<path style=" stroke:none;fill-rule:nonzero;fill:rgb(60.389709%,65.489197%,69.799805%);fill-opacity:1;" d="M 946.410156 18.777344 L 927.625 0.078125 L 927.625 478.175781 L 946.410156 496.957031 Z M 946.410156 18.777344 "/>
</g>
<path style=" stroke:none;fill-rule:nonzero;fill:rgb(93.728638%,92.158508%,88.62915%);fill-opacity:1;" d="M 590.609375 0 L 571.824219 0 L 571.824219 478.175781 L 927.625 478.175781 L 927.625 0 Z M 590.609375 0 "/>
<g clip-path="url(#clip12)" clip-rule="nonzero">
<path style=" stroke:none;fill-rule:nonzero;fill:rgb(12.939453%,39.219666%,60.389709%);fill-opacity:1;" d="M 1006.585938 478.34375 L 927.796875 478.34375 L 946.582031 497.128906 L 1025.371094 497.128906 Z M 1006.585938 478.34375 "/>
</g>
<g clip-path="url(#clip13)" clip-rule="nonzero">
<path style=" stroke:none;fill-rule:nonzero;fill:rgb(12.939453%,39.219666%,60.389709%);fill-opacity:1;" d="M 1025.371094 18.785156 L 1006.585938 0.078125 L 1006.585938 478.34375 L 1025.371094 497.128906 Z M 1025.371094 18.785156 "/>
</g>
<path style=" stroke:none;fill-rule:nonzero;fill:rgb(10.978699%,61.569214%,84.309387%);fill-opacity:1;" d="M 946.582031 0 L 927.796875 0 L 927.796875 478.34375 L 1006.585938 478.34375 L 1006.585938 0 Z M 946.582031 0 "/>
<path style=" stroke:none;fill-rule:nonzero;fill:rgb(100%,100%,100%);fill-opacity:1;" d="M 506.253906 0 L 992.691406 0 L 992.691406 476.96875 L 506.253906 476.96875 Z M 506.253906 0 "/>
<path style=" stroke:none;fill-rule:nonzero;fill:rgb(85.099792%,85.099792%,85.099792%);fill-opacity:1;" d="M 480.210938 75.140625 C 479.628906 75.140625 479.046875 75.195312 478.476562 75.308594 C 477.902344 75.421875 477.347656 75.59375 476.808594 75.816406 C 476.265625 76.039062 475.753906 76.3125 475.269531 76.636719 C 474.785156 76.960938 474.335938 77.332031 473.921875 77.746094 C 473.507812 78.15625 473.140625 78.605469 472.816406 79.09375 C 472.492188 79.578125 472.214844 80.089844 471.992188 80.628906 C 471.769531 81.167969 471.601562 81.726562 471.488281 82.300781 C 471.371094 82.871094 471.316406 83.449219 471.316406 84.035156 C 471.316406 84.617188 471.371094 85.195312 471.488281 85.769531 C 471.601562 86.34375 471.769531 86.898438 471.992188 87.4375 C 472.214844 87.976562 472.492188 88.492188 472.816406 88.976562 C 473.140625 89.460938 473.507812 89.910156 473.921875 90.324219 C 474.335938 90.738281 474.785156 91.105469 475.269531 91.429688 C 475.753906 91.753906 476.265625 92.027344 476.808594 92.253906 C 477.347656 92.476562 477.902344 92.644531 478.476562 92.757812 C 479.046875 92.871094 479.628906 92.929688 480.210938 92.929688 C 480.796875 92.929688 481.375 92.871094 481.945312 92.757812 C 482.519531 92.644531 483.074219 92.476562 483.617188 92.253906 C 484.15625 92.027344 484.667969 91.753906 485.152344 91.429688 C 485.640625 91.105469 486.089844 90.738281 486.5 90.324219 C 486.914062 89.910156 487.28125 89.460938 487.605469 88.976562 C 487.933594 88.492188 488.207031 87.976562 488.429688 87.4375 C 488.652344 86.898438 488.820312 86.34375 488.9375 85.769531 C 489.050781 85.195312 489.105469 84.617188 489.105469 84.035156 C 489.105469 83.449219 489.050781 82.871094 488.9375 82.300781 C 488.820312 81.726562 488.652344 81.167969 488.429688 80.628906 C 488.207031 80.089844 487.933594 79.578125 487.605469 79.09375 C 487.28125 78.605469 486.914062 78.15625 486.5 77.746094 C 486.089844 77.332031 485.640625 76.960938 485.152344 76.636719 C 484.667969 76.3125 484.15625 76.039062 483.617188 75.816406 C 483.074219 75.59375 482.519531 75.421875 481.945312 75.308594 C 481.375 75.195312 480.796875 75.140625 480.210938 75.140625 Z M 480.210938 75.140625 "/>
<path style=" stroke:none;fill-rule:nonzero;fill:rgb(85.099792%,85.099792%,85.099792%);fill-opacity:1;" d="M 480.425781 107.648438 C 479.839844 107.648438 479.261719 107.707031 478.691406 107.820312 C 478.117188 107.933594 477.558594 108.101562 477.019531 108.328125 C 476.480469 108.550781 475.96875 108.824219 475.484375 109.148438 C 474.996094 109.472656 474.546875 109.84375 474.136719 110.253906 C 473.722656 110.667969 473.351562 111.117188 473.027344 111.601562 C 472.703125 112.089844 472.429688 112.601562 472.207031 113.140625 C 471.984375 113.679688 471.8125 114.238281 471.699219 114.808594 C 471.585938 115.382812 471.53125 115.960938 471.53125 116.546875 C 471.53125 117.128906 471.585938 117.707031 471.699219 118.28125 C 471.8125 118.855469 471.984375 119.410156 472.207031 119.949219 C 472.429688 120.488281 472.703125 121 473.027344 121.488281 C 473.351562 121.972656 473.722656 122.421875 474.136719 122.835938 C 474.546875 123.25 474.996094 123.617188 475.484375 123.941406 C 475.96875 124.265625 476.480469 124.539062 477.019531 124.761719 C 477.558594 124.988281 478.117188 125.15625 478.691406 125.269531 C 479.261719 125.382812 479.839844 125.441406 480.425781 125.441406 C 481.007812 125.441406 481.585938 125.382812 482.160156 125.269531 C 482.734375 125.15625 483.289062 124.988281 483.828125 124.761719 C 484.367188 124.539062 484.882812 124.265625 485.367188 123.941406 C 485.851562 123.617188 486.300781 123.25 486.714844 122.835938 C 487.128906 122.421875 487.496094 121.972656 487.820312 121.488281 C 488.144531 121 488.417969 120.488281 488.644531 119.949219 C 488.867188 119.410156 489.035156 118.855469 489.148438 118.28125 C 489.261719 117.707031 489.320312 117.128906 489.320312 116.546875 C 489.320312 115.960938 489.261719 115.382812 489.148438 114.808594 C 489.035156 114.238281 488.867188 113.679688 488.644531 113.140625 C 488.417969 112.601562 488.144531 112.089844 487.820312 111.601562 C 487.496094 111.117188 487.128906 110.667969 486.714844 110.253906 C 486.300781 109.84375 485.851562 109.472656 485.367188 109.148438 C 484.882812 108.824219 484.367188 108.550781 483.828125 108.328125 C 483.289062 108.101562 482.734375 107.933594 482.160156 107.820312 C 481.585938 107.707031 481.007812 107.648438 480.425781 107.648438 Z M 480.425781 107.648438 "/>
<path style=" stroke:none;fill-rule:nonzero;fill:rgb(85.099792%,85.099792%,85.099792%);fill-opacity:1;" d="M 480.210938 140.496094 C 479.628906 140.496094 479.046875 140.554688 478.476562 140.667969 C 477.902344 140.78125 477.347656 140.953125 476.808594 141.175781 C 476.265625 141.398438 475.753906 141.671875 475.269531 141.996094 C 474.785156 142.320312 474.335938 142.691406 473.921875 143.101562 C 473.507812 143.515625 473.140625 143.964844 472.816406 144.449219 C 472.492188 144.9375 472.214844 145.449219 471.992188 145.988281 C 471.769531 146.527344 471.601562 147.085938 471.488281 147.65625 C 471.371094 148.230469 471.316406 148.808594 471.316406 149.394531 C 471.316406 149.976562 471.371094 150.554688 471.488281 151.128906 C 471.601562 151.703125 471.769531 152.257812 471.992188 152.796875 C 472.214844 153.335938 472.492188 153.851562 472.816406 154.335938 C 473.140625 154.820312 473.507812 155.269531 473.921875 155.683594 C 474.335938 156.097656 474.785156 156.464844 475.269531 156.789062 C 475.753906 157.113281 476.265625 157.386719 476.808594 157.613281 C 477.347656 157.835938 477.902344 158.003906 478.476562 158.117188 C 479.046875 158.230469 479.628906 158.289062 480.210938 158.289062 C 480.796875 158.289062 481.375 158.230469 481.945312 158.117188 C 482.519531 158.003906 483.074219 157.835938 483.617188 157.613281 C 484.15625 157.386719 484.667969 157.113281 485.152344 156.789062 C 485.640625 156.464844 486.089844 156.097656 486.5 155.683594 C 486.914062 155.269531 487.28125 154.820312 487.605469 154.335938 C 487.933594 153.851562 488.207031 153.335938 488.429688 152.796875 C 488.652344 152.257812 488.820312 151.703125 488.9375 151.128906 C 489.050781 150.554688 489.105469 149.976562 489.105469 149.394531 C 489.105469 148.808594 489.050781 148.230469 488.9375 147.65625 C 488.820312 147.085938 488.652344 146.527344 488.429688 145.988281 C 488.207031 145.449219 487.933594 144.9375 487.605469 144.449219 C 487.28125 143.964844 486.914062 143.515625 486.5 143.101562 C 486.089844 142.691406 485.640625 142.320312 485.152344 141.996094 C 484.667969 141.671875 484.15625 141.398438 483.617188 141.175781 C 483.074219 140.953125 482.519531 140.78125 481.945312 140.667969 C 481.375 140.554688 480.796875 140.496094 480.210938 140.496094 Z M 480.210938 140.496094 "/>
<path style=" stroke:none;fill-rule:nonzero;fill:rgb(85.099792%,85.099792%,85.099792%);fill-opacity:1;" d="M 480.425781 171.15625 C 479.839844 171.15625 479.261719 171.210938 478.691406 171.328125 C 478.117188 171.441406 477.558594 171.609375 477.019531 171.832031 C 476.480469 172.054688 475.96875 172.332031 475.484375 172.65625 C 474.996094 172.980469 474.546875 173.347656 474.136719 173.761719 C 473.722656 174.175781 473.351562 174.625 473.027344 175.109375 C 472.703125 175.59375 472.429688 176.109375 472.207031 176.648438 C 471.984375 177.1875 471.8125 177.742188 471.699219 178.316406 C 471.585938 178.890625 471.53125 179.46875 471.53125 180.050781 C 471.53125 180.636719 471.585938 181.214844 471.699219 181.785156 C 471.8125 182.359375 471.984375 182.914062 472.207031 183.457031 C 472.429688 183.996094 472.703125 184.507812 473.027344 184.992188 C 473.351562 185.480469 473.722656 185.929688 474.136719 186.339844 C 474.546875 186.753906 474.996094 187.125 475.484375 187.449219 C 475.96875 187.773438 476.480469 188.046875 477.019531 188.269531 C 477.558594 188.492188 478.117188 188.660156 478.691406 188.777344 C 479.261719 188.890625 479.839844 188.945312 480.425781 188.945312 C 481.007812 188.945312 481.585938 188.890625 482.160156 188.777344 C 482.734375 188.660156 483.289062 188.492188 483.828125 188.269531 C 484.367188 188.046875 484.882812 187.773438 485.367188 187.449219 C 485.851562 187.125 486.300781 186.753906 486.714844 186.339844 C 487.128906 185.929688 487.496094 185.480469 487.820312 184.992188 C 488.144531 184.507812 488.417969 183.996094 488.644531 183.457031 C 488.867188 182.914062 489.035156 182.359375 489.148438 181.785156 C 489.261719 181.214844 489.320312 180.636719 489.320312 180.050781 C 489.320312 179.46875 489.261719 178.890625 489.148438 178.316406 C 489.035156 177.742188 488.867188 177.1875 488.644531 176.648438 C 488.417969 176.109375 488.144531 175.59375 487.820312 175.109375 C 487.496094 174.625 487.128906 174.175781 486.714844 173.761719 C 486.300781 173.347656 485.851562 172.980469 485.367188 172.65625 C 484.882812 172.332031 484.367188 172.054688 483.828125 171.832031 C 483.289062 171.609375 482.734375 171.441406 482.160156 171.328125 C 481.585938 171.210938 481.007812 171.15625 480.425781 171.15625 Z M 480.425781 171.15625 "/>
<path style=" stroke:none;fill-rule:nonzero;fill:rgb(85.099792%,85.099792%,85.099792%);fill-opacity:1;" d="M 480.425781 207.078125 C 479.839844 207.078125 479.261719 207.136719 478.691406 207.25 C 478.117188 207.363281 477.558594 207.53125 477.019531 207.757812 C 476.480469 207.980469 475.96875 208.253906 475.484375 208.578125 C 474.996094 208.902344 474.546875 209.273438 474.136719 209.683594 C 473.722656 210.097656 473.351562 210.546875 473.027344 211.03125 C 472.703125 211.519531 472.429688 212.03125 472.207031 212.570312 C 471.984375 213.109375 471.8125 213.667969 471.699219 214.238281 C 471.585938 214.8125 471.53125 215.390625 471.53125 215.976562 C 471.53125 216.558594 471.585938 217.136719 471.699219 217.710938 C 471.8125 218.285156 471.984375 218.839844 472.207031 219.378906 C 472.429688 219.917969 472.703125 220.429688 473.027344 220.917969 C 473.351562 221.402344 473.722656 221.851562 474.136719 222.265625 C 474.546875 222.679688 474.996094 223.046875 475.484375 223.371094 C 475.96875 223.695312 476.480469 223.96875 477.019531 224.191406 C 477.558594 224.417969 478.117188 224.585938 478.691406 224.699219 C 479.261719 224.8125 479.839844 224.871094 480.425781 224.871094 C 481.007812 224.871094 481.585938 224.8125 482.160156 224.699219 C 482.734375 224.585938 483.289062 224.417969 483.828125 224.191406 C 484.367188 223.96875 484.882812 223.695312 485.367188 223.371094 C 485.851562 223.046875 486.300781 222.679688 486.714844 222.265625 C 487.128906 221.851562 487.496094 221.402344 487.820312 220.917969 C 488.144531 220.429688 488.417969 219.917969 488.644531 219.378906 C 488.867188 218.839844 489.035156 218.285156 489.148438 217.710938 C 489.261719 217.136719 489.320312 216.558594 489.320312 215.976562 C 489.320312 215.390625 489.261719 214.8125 489.148438 214.238281 C 489.035156 213.667969 488.867188 213.109375 488.644531 212.570312 C 488.417969 212.03125 488.144531 211.519531 487.820312 211.03125 C 487.496094 210.546875 487.128906 210.097656 486.714844 209.683594 C 486.300781 209.273438 485.851562 208.902344 485.367188 208.578125 C 484.882812 208.253906 484.367188 207.980469 483.828125 207.757812 C 483.289062 207.53125 482.734375 207.363281 482.160156 207.25 C 481.585938 207.136719 481.007812 207.078125 480.425781 207.078125 Z M 480.425781 207.078125 "/>
<path style=" stroke:none;fill-rule:nonzero;fill:rgb(85.099792%,85.099792%,85.099792%);fill-opacity:1;" d="M 480.425781 239.652344 C 479.839844 239.652344 479.261719 239.710938 478.691406 239.824219 C 478.117188 239.9375 477.558594 240.105469 477.019531 240.328125 C 476.480469 240.554688 475.96875 240.828125 475.484375 241.152344 C 474.996094 241.476562 474.546875 241.84375 474.136719 242.257812 C 473.722656 242.671875 473.351562 243.121094 473.027344 243.605469 C 472.703125 244.089844 472.429688 244.605469 472.207031 245.144531 C 471.984375 245.683594 471.8125 246.238281 471.699219 246.8125 C 471.585938 247.386719 471.53125 247.964844 471.53125 248.546875 C 471.53125 249.132812 471.585938 249.710938 471.699219 250.28125 C 471.8125 250.855469 471.984375 251.414062 472.207031 251.953125 C 472.429688 252.492188 472.703125 253.003906 473.027344 253.488281 C 473.351562 253.976562 473.722656 254.425781 474.136719 254.835938 C 474.546875 255.25 474.996094 255.621094 475.484375 255.945312 C 475.96875 256.269531 476.480469 256.542969 477.019531 256.765625 C 477.558594 256.988281 478.117188 257.160156 478.691406 257.273438 C 479.261719 257.386719 479.839844 257.441406 480.425781 257.441406 C 481.007812 257.441406 481.585938 257.386719 482.160156 257.273438 C 482.734375 257.160156 483.289062 256.988281 483.828125 256.765625 C 484.367188 256.542969 484.882812 256.269531 485.367188 255.945312 C 485.851562 255.621094 486.300781 255.25 486.714844 254.835938 C 487.128906 254.425781 487.496094 253.976562 487.820312 253.488281 C 488.144531 253.003906 488.417969 252.492188 488.644531 251.953125 C 488.867188 251.414062 489.035156 250.855469 489.148438 250.28125 C 489.261719 249.710938 489.320312 249.132812 489.320312 248.546875 C 489.320312 247.964844 489.261719 247.386719 489.148438 246.8125 C 489.035156 246.238281 488.867188 245.683594 488.644531 245.144531 C 488.417969 244.605469 488.144531 244.089844 487.820312 243.605469 C 487.496094 243.121094 487.128906 242.671875 486.714844 242.257812 C 486.300781 241.84375 485.851562 241.476562 485.367188 241.152344 C 484.882812 240.828125 484.367188 240.554688 483.828125 240.328125 C 483.289062 240.105469 482.734375 239.9375 482.160156 239.824219 C 481.585938 239.710938 481.007812 239.652344 480.425781 239.652344 Z M 480.425781 239.652344 "/>
<path style=" stroke:none;fill-rule:nonzero;fill:rgb(85.099792%,85.099792%,85.099792%);fill-opacity:1;" d="M 480.425781 275.175781 C 479.839844 275.175781 479.261719 275.230469 478.691406 275.34375 C 478.117188 275.460938 477.558594 275.628906 477.019531 275.851562 C 476.480469 276.074219 475.96875 276.347656 475.484375 276.671875 C 474.996094 276.996094 474.546875 277.367188 474.136719 277.78125 C 473.722656 278.191406 473.351562 278.640625 473.027344 279.128906 C 472.703125 279.613281 472.429688 280.125 472.207031 280.664062 C 471.984375 281.207031 471.8125 281.761719 471.699219 282.335938 C 471.585938 282.90625 471.53125 283.484375 471.53125 284.070312 C 471.53125 284.652344 471.585938 285.230469 471.699219 285.804688 C 471.8125 286.378906 471.984375 286.933594 472.207031 287.472656 C 472.429688 288.011719 472.703125 288.527344 473.027344 289.011719 C 473.351562 289.496094 473.722656 289.945312 474.136719 290.359375 C 474.546875 290.773438 474.996094 291.140625 475.484375 291.464844 C 475.96875 291.789062 476.480469 292.066406 477.019531 292.289062 C 477.558594 292.511719 478.117188 292.679688 478.691406 292.792969 C 479.261719 292.90625 479.839844 292.964844 480.425781 292.964844 C 481.007812 292.964844 481.585938 292.90625 482.160156 292.792969 C 482.734375 292.679688 483.289062 292.511719 483.828125 292.289062 C 484.367188 292.066406 484.882812 291.789062 485.367188 291.464844 C 485.851562 291.140625 486.300781 290.773438 486.714844 290.359375 C 487.128906 289.945312 487.496094 289.496094 487.820312 289.011719 C 488.144531 288.527344 488.417969 288.011719 488.644531 287.472656 C 488.867188 286.933594 489.035156 286.378906 489.148438 285.804688 C 489.261719 285.230469 489.320312 284.652344 489.320312 284.070312 C 489.320312 283.484375 489.261719 282.90625 489.148438 282.335938 C 489.035156 281.761719 488.867188 281.207031 488.644531 280.664062 C 488.417969 280.125 488.144531 279.613281 487.820312 279.128906 C 487.496094 278.640625 487.128906 278.191406 486.714844 277.78125 C 486.300781 277.367188 485.851562 276.996094 485.367188 276.671875 C 484.882812 276.347656 484.367188 276.074219 483.828125 275.851562 C 483.289062 275.628906 482.734375 275.460938 482.160156 275.34375 C 481.585938 275.230469 481.007812 275.175781 480.425781 275.175781 Z M 480.425781 275.175781 "/>
<path style=" stroke:none;fill-rule:nonzero;fill:rgb(85.099792%,85.099792%,85.099792%);fill-opacity:1;" d="M 480.425781 312.402344 C 479.839844 312.402344 479.261719 312.457031 478.691406 312.574219 C 478.117188 312.6875 477.558594 312.855469 477.019531 313.078125 C 476.480469 313.300781 475.96875 313.578125 475.484375 313.902344 C 474.996094 314.226562 474.546875 314.59375 474.136719 315.007812 C 473.722656 315.421875 473.351562 315.871094 473.027344 316.355469 C 472.703125 316.839844 472.429688 317.351562 472.207031 317.894531 C 471.984375 318.433594 471.8125 318.988281 471.699219 319.5625 C 471.585938 320.132812 471.53125 320.714844 471.53125 321.296875 C 471.53125 321.882812 471.585938 322.460938 471.699219 323.03125 C 471.8125 323.605469 471.984375 324.160156 472.207031 324.703125 C 472.429688 325.242188 472.703125 325.753906 473.027344 326.238281 C 473.351562 326.726562 473.722656 327.175781 474.136719 327.585938 C 474.546875 328 474.996094 328.367188 475.484375 328.695312 C 475.96875 329.019531 476.480469 329.292969 477.019531 329.515625 C 477.558594 329.738281 478.117188 329.90625 478.691406 330.023438 C 479.261719 330.136719 479.839844 330.191406 480.425781 330.191406 C 481.007812 330.191406 481.585938 330.136719 482.160156 330.023438 C 482.734375 329.90625 483.289062 329.738281 483.828125 329.515625 C 484.367188 329.292969 484.882812 329.019531 485.367188 328.695312 C 485.851562 328.367188 486.300781 328 486.714844 327.585938 C 487.128906 327.175781 487.496094 326.726562 487.820312 326.238281 C 488.144531 325.753906 488.417969 325.242188 488.644531 324.703125 C 488.867188 324.160156 489.035156 323.605469 489.148438 323.03125 C 489.261719 322.460938 489.320312 321.882812 489.320312 321.296875 C 489.320312 320.714844 489.261719 320.132812 489.148438 319.5625 C 489.035156 318.988281 488.867188 318.433594 488.644531 317.894531 C 488.417969 317.351562 488.144531 316.839844 487.820312 316.355469 C 487.496094 315.871094 487.128906 315.421875 486.714844 315.007812 C 486.300781 314.59375 485.851562 314.226562 485.367188 313.902344 C 484.882812 313.578125 484.367188 313.300781 483.828125 313.078125 C 483.289062 312.855469 482.734375 312.6875 482.160156 312.574219 C 481.585938 312.457031 481.007812 312.402344 480.425781 312.402344 Z M 480.425781 312.402344 "/>
<path style=" stroke:none;fill-rule:nonzero;fill:rgb(85.099792%,85.099792%,85.099792%);fill-opacity:1;" d="M 480.210938 347.441406 C 479.628906 347.441406 479.046875 347.496094 478.476562 347.609375 C 477.902344 347.722656 477.347656 347.894531 476.808594 348.117188 C 476.265625 348.339844 475.753906 348.613281 475.269531 348.9375 C 474.785156 349.261719 474.335938 349.632812 473.921875 350.046875 C 473.507812 350.457031 473.140625 350.90625 472.816406 351.394531 C 472.492188 351.878906 472.214844 352.390625 471.992188 352.929688 C 471.769531 353.46875 471.601562 354.027344 471.488281 354.597656 C 471.371094 355.171875 471.316406 355.75 471.316406 356.335938 C 471.316406 356.917969 471.371094 357.496094 471.488281 358.070312 C 471.601562 358.644531 471.769531 359.199219 471.992188 359.738281 C 472.214844 360.277344 472.492188 360.792969 472.816406 361.277344 C 473.140625 361.761719 473.507812 362.210938 473.921875 362.625 C 474.335938 363.039062 474.785156 363.40625 475.269531 363.730469 C 475.753906 364.054688 476.265625 364.328125 476.808594 364.554688 C 477.347656 364.777344 477.902344 364.945312 478.476562 365.058594 C 479.046875 365.171875 479.628906 365.230469 480.210938 365.230469 C 480.796875 365.230469 481.375 365.171875 481.945312 365.058594 C 482.519531 364.945312 483.074219 364.777344 483.617188 364.554688 C 484.15625 364.328125 484.667969 364.054688 485.152344 363.730469 C 485.640625 363.40625 486.089844 363.039062 486.5 362.625 C 486.914062 362.210938 487.28125 361.761719 487.605469 361.277344 C 487.933594 360.792969 488.207031 360.277344 488.429688 359.738281 C 488.652344 359.199219 488.820312 358.644531 488.9375 358.070312 C 489.050781 357.496094 489.105469 356.917969 489.105469 356.335938 C 489.105469 355.75 489.050781 355.171875 488.9375 354.597656 C 488.820312 354.027344 488.652344 353.46875 488.429688 352.929688 C 488.207031 352.390625 487.933594 351.878906 487.605469 351.394531 C 487.28125 350.90625 486.914062 350.457031 486.5 350.046875 C 486.089844 349.632812 485.640625 349.261719 485.152344 348.9375 C 484.667969 348.613281 484.15625 348.339844 483.617188 348.117188 C 483.074219 347.894531 482.519531 347.722656 481.945312 347.609375 C 481.375 347.496094 480.796875 347.441406 480.210938 347.441406 Z M 480.210938 347.441406 "/>
<path style=" stroke:none;fill-rule:nonzero;fill:rgb(85.099792%,85.099792%,85.099792%);fill-opacity:1;" d="M 480.425781 381.382812 C 479.839844 381.382812 479.261719 381.4375 478.691406 381.554688 C 478.117188 381.667969 477.558594 381.835938 477.019531 382.058594 C 476.480469 382.28125 475.96875 382.558594 475.484375 382.882812 C 474.996094 383.207031 474.546875 383.574219 474.136719 383.988281 C 473.722656 384.402344 473.351562 384.851562 473.027344 385.335938 C 472.703125 385.820312 472.429688 386.335938 472.207031 386.875 C 471.984375 387.414062 471.8125 387.96875 471.699219 388.542969 C 471.585938 389.117188 471.53125 389.695312 471.53125 390.277344 C 471.53125 390.863281 471.585938 391.441406 471.699219 392.011719 C 471.8125 392.585938 471.984375 393.140625 472.207031 393.683594 C 472.429688 394.222656 472.703125 394.734375 473.027344 395.21875 C 473.351562 395.707031 473.722656 396.15625 474.136719 396.566406 C 474.546875 396.980469 474.996094 397.351562 475.484375 397.675781 C 475.96875 398 476.480469 398.273438 477.019531 398.496094 C 477.558594 398.71875 478.117188 398.886719 478.691406 399.003906 C 479.261719 399.117188 479.839844 399.171875 480.425781 399.171875 C 481.007812 399.171875 481.585938 399.117188 482.160156 399.003906 C 482.734375 398.886719 483.289062 398.71875 483.828125 398.496094 C 484.367188 398.273438 484.882812 398 485.367188 397.675781 C 485.851562 397.351562 486.300781 396.980469 486.714844 396.566406 C 487.128906 396.15625 487.496094 395.707031 487.820312 395.21875 C 488.144531 394.734375 488.417969 394.222656 488.644531 393.683594 C 488.867188 393.140625 489.035156 392.585938 489.148438 392.011719 C 489.261719 391.441406 489.320312 390.863281 489.320312 390.277344 C 489.320312 389.695312 489.261719 389.117188 489.148438 388.542969 C 489.035156 387.96875 488.867188 387.414062 488.644531 386.875 C 488.417969 386.335938 488.144531 385.820312 487.820312 385.335938 C 487.496094 384.851562 487.128906 384.402344 486.714844 383.988281 C 486.300781 383.574219 485.851562 383.207031 485.367188 382.882812 C 484.882812 382.558594 484.367188 382.28125 483.828125 382.058594 C 483.289062 381.835938 482.734375 381.667969 482.160156 381.554688 C 481.585938 381.4375 481.007812 381.382812 480.425781 381.382812 Z M 480.425781 381.382812 "/>
<path style=" stroke:none;fill-rule:nonzero;fill:rgb(85.099792%,85.099792%,85.099792%);fill-opacity:1;" d="M 480.425781 413.0625 C 479.839844 413.0625 479.261719 413.117188 478.691406 413.230469 C 478.117188 413.347656 477.558594 413.515625 477.019531 413.738281 C 476.480469 413.960938 475.96875 414.234375 475.484375 414.558594 C 474.996094 414.886719 474.546875 415.253906 474.136719 415.667969 C 473.722656 416.078125 473.351562 416.527344 473.027344 417.015625 C 472.703125 417.5 472.429688 418.011719 472.207031 418.550781 C 471.984375 419.09375 471.8125 419.648438 471.699219 420.222656 C 471.585938 420.792969 471.53125 421.371094 471.53125 421.957031 C 471.53125 422.539062 471.585938 423.121094 471.699219 423.691406 C 471.8125 424.265625 471.984375 424.820312 472.207031 425.359375 C 472.429688 425.902344 472.703125 426.414062 473.027344 426.898438 C 473.351562 427.382812 473.722656 427.832031 474.136719 428.246094 C 474.546875 428.660156 474.996094 429.027344 475.484375 429.351562 C 475.96875 429.675781 476.480469 429.953125 477.019531 430.175781 C 477.558594 430.398438 478.117188 430.566406 478.691406 430.679688 C 479.261719 430.796875 479.839844 430.851562 480.425781 430.851562 C 481.007812 430.851562 481.585938 430.796875 482.160156 430.679688 C 482.734375 430.566406 483.289062 430.398438 483.828125 430.175781 C 484.367188 429.953125 484.882812 429.675781 485.367188 429.351562 C 485.851562 429.027344 486.300781 428.660156 486.714844 428.246094 C 487.128906 427.832031 487.496094 427.382812 487.820312 426.898438 C 488.144531 426.414062 488.417969 425.902344 488.644531 425.359375 C 488.867188 424.820312 489.035156 424.265625 489.148438 423.691406 C 489.261719 423.121094 489.320312 422.539062 489.320312 421.957031 C 489.320312 421.371094 489.261719 420.792969 489.148438 420.222656 C 489.035156 419.648438 488.867188 419.09375 488.644531 418.550781 C 488.417969 418.011719 488.144531 417.5 487.820312 417.015625 C 487.496094 416.527344 487.128906 416.078125 486.714844 415.667969 C 486.300781 415.253906 485.851562 414.886719 485.367188 414.558594 C 484.882812 414.234375 484.367188 413.960938 483.828125 413.738281 C 483.289062 413.515625 482.734375 413.347656 482.160156 413.230469 C 481.585938 413.117188 481.007812 413.0625 480.425781 413.0625 Z M 480.425781 413.0625 "/>
<path style=" stroke:none;fill-rule:nonzero;fill:rgb(85.099792%,85.099792%,85.099792%);fill-opacity:1;" d="M 480.425781 449.269531 C 479.839844 449.269531 479.261719 449.324219 478.691406 449.4375 C 478.117188 449.554688 477.558594 449.722656 477.019531 449.945312 C 476.480469 450.167969 475.96875 450.441406 475.484375 450.765625 C 474.996094 451.089844 474.546875 451.460938 474.136719 451.875 C 473.722656 452.285156 473.351562 452.734375 473.027344 453.222656 C 472.703125 453.707031 472.429688 454.21875 472.207031 454.757812 C 471.984375 455.300781 471.8125 455.855469 471.699219 456.429688 C 471.585938 457 471.53125 457.578125 471.53125 458.164062 C 471.53125 458.746094 471.585938 459.324219 471.699219 459.898438 C 471.8125 460.472656 471.984375 461.027344 472.207031 461.566406 C 472.429688 462.105469 472.703125 462.621094 473.027344 463.105469 C 473.351562 463.589844 473.722656 464.039062 474.136719 464.453125 C 474.546875 464.867188 474.996094 465.234375 475.484375 465.558594 C 475.96875 465.882812 476.480469 466.160156 477.019531 466.382812 C 477.558594 466.605469 478.117188 466.773438 478.691406 466.886719 C 479.261719 467.003906 479.839844 467.058594 480.425781 467.058594 C 481.007812 467.058594 481.585938 467.003906 482.160156 466.886719 C 482.734375 466.773438 483.289062 466.605469 483.828125 466.382812 C 484.367188 466.160156 484.882812 465.882812 485.367188 465.558594 C 485.851562 465.234375 486.300781 464.867188 486.714844 464.453125 C 487.128906 464.039062 487.496094 463.589844 487.820312 463.105469 C 488.144531 462.621094 488.417969 462.105469 488.644531 461.566406 C 488.867188 461.027344 489.035156 460.472656 489.148438 459.898438 C 489.261719 459.324219 489.320312 458.746094 489.320312 458.164062 C 489.320312 457.578125 489.261719 457 489.148438 456.429688 C 489.035156 455.855469 488.867188 455.300781 488.644531 454.757812 C 488.417969 454.21875 488.144531 453.707031 487.820312 453.222656 C 487.496094 452.734375 487.128906 452.285156 486.714844 451.875 C 486.300781 451.460938 485.851562 451.089844 485.367188 450.765625 C 484.882812 450.441406 484.367188 450.167969 483.828125 449.945312 C 483.289062 449.722656 482.734375 449.554688 482.160156 449.4375 C 481.585938 449.324219 481.007812 449.269531 480.425781 449.269531 Z M 480.425781 449.269531 "/>
<path style=" stroke:none;fill-rule:nonzero;fill:rgb(85.099792%,85.099792%,85.099792%);fill-opacity:1;" d="M 480.425781 39.828125 C 479.839844 39.828125 479.261719 39.886719 478.691406 40 C 478.117188 40.113281 477.558594 40.28125 477.019531 40.503906 C 476.480469 40.730469 475.96875 41.003906 475.484375 41.328125 C 474.996094 41.652344 474.546875 42.019531 474.136719 42.433594 C 473.722656 42.847656 473.351562 43.296875 473.027344 43.78125 C 472.703125 44.269531 472.429688 44.78125 472.207031 45.320312 C 471.984375 45.859375 471.8125 46.414062 471.699219 46.988281 C 471.585938 47.5625 471.53125 48.140625 471.53125 48.722656 C 471.53125 49.308594 471.585938 49.886719 471.699219 50.460938 C 471.8125 51.03125 471.984375 51.589844 472.207031 52.128906 C 472.429688 52.667969 472.703125 53.179688 473.027344 53.667969 C 473.351562 54.152344 473.722656 54.601562 474.136719 55.015625 C 474.546875 55.425781 474.996094 55.796875 475.484375 56.121094 C 475.96875 56.445312 476.480469 56.71875 477.019531 56.941406 C 477.558594 57.164062 478.117188 57.335938 478.691406 57.449219 C 479.261719 57.5625 479.839844 57.621094 480.425781 57.621094 C 481.007812 57.621094 481.585938 57.5625 482.160156 57.449219 C 482.734375 57.335938 483.289062 57.164062 483.828125 56.941406 C 484.367188 56.71875 484.882812 56.445312 485.367188 56.121094 C 485.851562 55.796875 486.300781 55.425781 486.714844 55.015625 C 487.128906 54.601562 487.496094 54.152344 487.820312 53.667969 C 488.144531 53.179688 488.417969 52.667969 488.644531 52.128906 C 488.867188 51.589844 489.035156 51.03125 489.148438 50.460938 C 489.261719 49.886719 489.320312 49.308594 489.320312 48.722656 C 489.320312 48.140625 489.261719 47.5625 489.148438 46.988281 C 489.035156 46.414062 488.867188 45.859375 488.644531 45.320312 C 488.417969 44.78125 488.144531 44.269531 487.820312 43.78125 C 487.496094 43.296875 487.128906 42.847656 486.714844 42.433594 C 486.300781 42.019531 485.851562 41.652344 485.367188 41.328125 C 484.882812 41.003906 484.367188 40.730469 483.828125 40.503906 C 483.289062 40.28125 482.734375 40.113281 482.160156 40 C 481.585938 39.886719 481.007812 39.828125 480.425781 39.828125 Z M 480.425781 39.828125 "/>
<path style=" stroke:none;fill-rule:nonzero;fill:rgb(85.099792%,85.099792%,85.099792%);fill-opacity:1;" d="M 480.210938 9.441406 C 479.628906 9.441406 479.046875 9.5 478.476562 9.613281 C 477.902344 9.726562 477.347656 9.898438 476.808594 10.121094 C 476.265625 10.34375 475.753906 10.617188 475.269531 10.941406 C 474.785156 11.265625 474.335938 11.636719 473.921875 12.046875 C 473.507812 12.460938 473.140625 12.910156 472.816406 13.398438 C 472.492188 13.882812 472.214844 14.394531 471.992188 14.933594 C 471.769531 15.472656 471.601562 16.03125 471.488281 16.601562 C 471.371094 17.175781 471.316406 17.753906 471.316406 18.339844 C 471.316406 18.921875 471.371094 19.5 471.488281 20.074219 C 471.601562 20.648438 471.769531 21.203125 471.992188 21.742188 C 472.214844 22.28125 472.492188 22.796875 472.816406 23.28125 C 473.140625 23.765625 473.507812 24.214844 473.921875 24.628906 C 474.335938 25.042969 474.785156 25.410156 475.269531 25.734375 C 475.753906 26.058594 476.265625 26.332031 476.808594 26.558594 C 477.347656 26.78125 477.902344 26.949219 478.476562 27.0625 C 479.046875 27.175781 479.628906 27.234375 480.210938 27.234375 C 480.796875 27.234375 481.375 27.175781 481.945312 27.0625 C 482.519531 26.949219 483.074219 26.78125 483.617188 26.558594 C 484.15625 26.332031 484.667969 26.058594 485.152344 25.734375 C 485.640625 25.410156 486.089844 25.042969 486.5 24.628906 C 486.914062 24.214844 487.28125 23.765625 487.605469 23.28125 C 487.933594 22.796875 488.207031 22.28125 488.429688 21.742188 C 488.652344 21.203125 488.820312 20.648438 488.9375 20.074219 C 489.050781 19.5 489.105469 18.921875 489.105469 18.339844 C 489.105469 17.753906 489.050781 17.175781 488.9375 16.601562 C 488.820312 16.03125 488.652344 15.472656 488.429688 14.933594 C 488.207031 14.394531 487.933594 13.882812 487.605469 13.398438 C 487.28125 12.910156 486.914062 12.460938 486.5 12.046875 C 486.089844 11.636719 485.640625 11.265625 485.152344 10.941406 C 484.667969 10.617188 484.15625 10.34375 483.617188 10.121094 C 483.074219 9.898438 482.519531 9.726562 481.945312 9.613281 C 481.375 9.5 480.796875 9.441406 480.210938 9.441406 Z M 480.210938 9.441406 "/>
<path style="fill:none;stroke-width:1;stroke-linecap:round;stroke-linejoin:miter;stroke:rgb(85.099792%,85.099792%,85.099792%);stroke-opacity:1;stroke-miterlimit:4;" d="M 0.499344 0.000962337 L 317.013866 0.000962337 " transform="matrix(0.000000000000000092,1.499166,-1.499203,0.000000000000000092,508.11863,0.00530724)"/>
<path style=" stroke:none;fill-rule:nonzero;fill:rgb(85.099792%,85.099792%,85.099792%);fill-opacity:1;" d="M 535.871094 9.441406 C 535.289062 9.441406 534.707031 9.5 534.136719 9.613281 C 533.5625 9.726562 533.007812 9.898438 532.46875 10.121094 C 531.925781 10.34375 531.414062 10.617188 530.929688 10.941406 C 530.445312 11.265625 529.996094 11.636719 529.582031 12.046875 C 529.167969 12.460938 528.800781 12.910156 528.476562 13.398438 C 528.148438 13.882812 527.875 14.394531 527.652344 14.933594 C 527.429688 15.472656 527.261719 16.03125 527.148438 16.601562 C 527.03125 17.175781 526.976562 17.753906 526.976562 18.339844 C 526.976562 18.921875 527.03125 19.5 527.148438 20.074219 C 527.261719 20.648438 527.429688 21.203125 527.652344 21.742188 C 527.875 22.28125 528.148438 22.796875 528.476562 23.28125 C 528.800781 23.765625 529.167969 24.214844 529.582031 24.628906 C 529.996094 25.042969 530.445312 25.410156 530.929688 25.734375 C 531.414062 26.058594 531.925781 26.332031 532.46875 26.558594 C 533.007812 26.78125 533.5625 26.949219 534.136719 27.0625 C 534.707031 27.175781 535.289062 27.234375 535.871094 27.234375 C 536.457031 27.234375 537.035156 27.175781 537.605469 27.0625 C 538.179688 26.949219 538.734375 26.78125 539.273438 26.558594 C 539.816406 26.332031 540.328125 26.058594 540.8125 25.734375 C 541.300781 25.410156 541.75 25.042969 542.160156 24.628906 C 542.574219 24.214844 542.941406 23.765625 543.265625 23.28125 C 543.59375 22.796875 543.867188 22.28125 544.089844 21.742188 C 544.3125 21.203125 544.480469 20.648438 544.597656 20.074219 C 544.710938 19.5 544.765625 18.921875 544.765625 18.339844 C 544.765625 17.753906 544.710938 17.175781 544.597656 16.601562 C 544.480469 16.03125 544.3125 15.472656 544.089844 14.933594 C 543.867188 14.394531 543.59375 13.882812 543.265625 13.398438 C 542.941406 12.910156 542.574219 12.460938 542.160156 12.046875 C 541.75 11.636719 541.300781 11.265625 540.8125 10.941406 C 540.328125 10.617188 539.816406 10.34375 539.273438 10.121094 C 538.734375 9.898438 538.179688 9.726562 537.605469 9.613281 C 537.035156 9.5 536.457031 9.441406 535.871094 9.441406 Z M 535.871094 9.441406 "/>
<path style=" stroke:none;fill-rule:nonzero;fill:rgb(85.099792%,85.099792%,85.099792%);fill-opacity:1;" d="M 535.871094 39.828125 C 535.289062 39.828125 534.707031 39.886719 534.136719 40 C 533.5625 40.113281 533.007812 40.28125 532.46875 40.503906 C 531.925781 40.730469 531.414062 41.003906 530.929688 41.328125 C 530.445312 41.652344 529.996094 42.019531 529.582031 42.433594 C 529.167969 42.847656 528.800781 43.296875 528.476562 43.78125 C 528.148438 44.269531 527.875 44.78125 527.652344 45.320312 C 527.429688 45.859375 527.261719 46.414062 527.148438 46.988281 C 527.03125 47.5625 526.976562 48.140625 526.976562 48.722656 C 526.976562 49.308594 527.03125 49.886719 527.148438 50.460938 C 527.261719 51.03125 527.429688 51.589844 527.652344 52.128906 C 527.875 52.667969 528.148438 53.179688 528.476562 53.667969 C 528.800781 54.152344 529.167969 54.601562 529.582031 55.015625 C 529.996094 55.425781 530.445312 55.796875 530.929688 56.121094 C 531.414062 56.445312 531.925781 56.71875 532.46875 56.941406 C 533.007812 57.164062 533.5625 57.335938 534.136719 57.449219 C 534.707031 57.5625 535.289062 57.621094 535.871094 57.621094 C 536.457031 57.621094 537.035156 57.5625 537.605469 57.449219 C 538.179688 57.335938 538.734375 57.164062 539.273438 56.941406 C 539.816406 56.71875 540.328125 56.445312 540.8125 56.121094 C 541.300781 55.796875 541.75 55.425781 542.160156 55.015625 C 542.574219 54.601562 542.941406 54.152344 543.265625 53.667969 C 543.59375 53.179688 543.867188 52.667969 544.089844 52.128906 C 544.3125 51.589844 544.480469 51.03125 544.597656 50.460938 C 544.710938 49.886719 544.765625 49.308594 544.765625 48.722656 C 544.765625 48.140625 544.710938 47.5625 544.597656 46.988281 C 544.480469 46.414062 544.3125 45.859375 544.089844 45.320312 C 543.867188 44.78125 543.59375 44.269531 543.265625 43.78125 C 542.941406 43.296875 542.574219 42.847656 542.160156 42.433594 C 541.75 42.019531 541.300781 41.652344 540.8125 41.328125 C 540.328125 41.003906 539.816406 40.730469 539.273438 40.503906 C 538.734375 40.28125 538.179688 40.113281 537.605469 40 C 537.035156 39.886719 536.457031 39.828125 535.871094 39.828125 Z M 535.871094 39.828125 "/>
<path style=" stroke:none;fill-rule:nonzero;fill:rgb(85.099792%,85.099792%,85.099792%);fill-opacity:1;" d="M 535.871094 75.140625 C 535.289062 75.140625 534.707031 75.195312 534.136719 75.308594 C 533.5625 75.421875 533.007812 75.59375 532.46875 75.816406 C 531.925781 76.039062 531.414062 76.3125 530.929688 76.636719 C 530.445312 76.960938 529.996094 77.332031 529.582031 77.746094 C 529.167969 78.15625 528.800781 78.605469 528.476562 79.09375 C 528.148438 79.578125 527.875 80.089844 527.652344 80.628906 C 527.429688 81.167969 527.261719 81.726562 527.148438 82.300781 C 527.03125 82.871094 526.976562 83.449219 526.976562 84.035156 C 526.976562 84.617188 527.03125 85.195312 527.148438 85.769531 C 527.261719 86.34375 527.429688 86.898438 527.652344 87.4375 C 527.875 87.976562 528.148438 88.492188 528.476562 88.976562 C 528.800781 89.460938 529.167969 89.910156 529.582031 90.324219 C 529.996094 90.738281 530.445312 91.105469 530.929688 91.429688 C 531.414062 91.753906 531.925781 92.027344 532.46875 92.253906 C 533.007812 92.476562 533.5625 92.644531 534.136719 92.757812 C 534.707031 92.871094 535.289062 92.929688 535.871094 92.929688 C 536.457031 92.929688 537.035156 92.871094 537.605469 92.757812 C 538.179688 92.644531 538.734375 92.476562 539.273438 92.253906 C 539.816406 92.027344 540.328125 91.753906 540.8125 91.429688 C 541.300781 91.105469 541.75 90.738281 542.160156 90.324219 C 542.574219 89.910156 542.941406 89.460938 543.265625 88.976562 C 543.59375 88.492188 543.867188 87.976562 544.089844 87.4375 C 544.3125 86.898438 544.480469 86.34375 544.597656 85.769531 C 544.710938 85.195312 544.765625 84.617188 544.765625 84.035156 C 544.765625 83.449219 544.710938 82.871094 544.597656 82.300781 C 544.480469 81.726562 544.3125 81.167969 544.089844 80.628906 C 543.867188 80.089844 543.59375 79.578125 543.265625 79.09375 C 542.941406 78.605469 542.574219 78.15625 542.160156 77.746094 C 541.75 77.332031 541.300781 76.960938 540.8125 76.636719 C 540.328125 76.3125 539.816406 76.039062 539.273438 75.816406 C 538.734375 75.59375 538.179688 75.421875 537.605469 75.308594 C 537.035156 75.195312 536.457031 75.140625 535.871094 75.140625 Z M 535.871094 75.140625 "/>
<path style=" stroke:none;fill-rule:nonzero;fill:rgb(85.099792%,85.099792%,85.099792%);fill-opacity:1;" d="M 535.871094 107.648438 C 535.289062 107.648438 534.707031 107.707031 534.136719 107.820312 C 533.5625 107.933594 533.007812 108.101562 532.46875 108.328125 C 531.925781 108.550781 531.414062 108.824219 530.929688 109.148438 C 530.445312 109.472656 529.996094 109.84375 529.582031 110.253906 C 529.167969 110.667969 528.800781 111.117188 528.476562 111.601562 C 528.148438 112.089844 527.875 112.601562 527.652344 113.140625 C 527.429688 113.679688 527.261719 114.238281 527.148438 114.808594 C 527.03125 115.382812 526.976562 115.960938 526.976562 116.546875 C 526.976562 117.128906 527.03125 117.707031 527.148438 118.28125 C 527.261719 118.855469 527.429688 119.410156 527.652344 119.949219 C 527.875 120.488281 528.148438 121 528.476562 121.488281 C 528.800781 121.972656 529.167969 122.421875 529.582031 122.835938 C 529.996094 123.25 530.445312 123.617188 530.929688 123.941406 C 531.414062 124.265625 531.925781 124.539062 532.46875 124.761719 C 533.007812 124.988281 533.5625 125.15625 534.136719 125.269531 C 534.707031 125.382812 535.289062 125.441406 535.871094 125.441406 C 536.457031 125.441406 537.035156 125.382812 537.605469 125.269531 C 538.179688 125.15625 538.734375 124.988281 539.273438 124.761719 C 539.816406 124.539062 540.328125 124.265625 540.8125 123.941406 C 541.300781 123.617188 541.75 123.25 542.160156 122.835938 C 542.574219 122.421875 542.941406 121.972656 543.265625 121.488281 C 543.59375 121 543.867188 120.488281 544.089844 119.949219 C 544.3125 119.410156 544.480469 118.855469 544.597656 118.28125 C 544.710938 117.707031 544.765625 117.128906 544.765625 116.546875 C 544.765625 115.960938 544.710938 115.382812 544.597656 114.808594 C 544.480469 114.238281 544.3125 113.679688 544.089844 113.140625 C 543.867188 112.601562 543.59375 112.089844 543.265625 111.601562 C 542.941406 111.117188 542.574219 110.667969 542.160156 110.253906 C 541.75 109.84375 541.300781 109.472656 540.8125 109.148438 C 540.328125 108.824219 539.816406 108.550781 539.273438 108.328125 C 538.734375 108.101562 538.179688 107.933594 537.605469 107.820312 C 537.035156 107.707031 536.457031 107.648438 535.871094 107.648438 Z M 535.871094 107.648438 "/>
<path style=" stroke:none;fill-rule:nonzero;fill:rgb(85.099792%,85.099792%,85.099792%);fill-opacity:1;" d="M 535.871094 140.496094 C 535.289062 140.496094 534.707031 140.554688 534.136719 140.667969 C 533.5625 140.78125 533.007812 140.953125 532.46875 141.175781 C 531.925781 141.398438 531.414062 141.671875 530.929688 141.996094 C 530.445312 142.320312 529.996094 142.691406 529.582031 143.101562 C 529.167969 143.515625 528.800781 143.964844 528.476562 144.449219 C 528.148438 144.9375 527.875 145.449219 527.652344 145.988281 C 527.429688 146.527344 527.261719 147.085938 527.148438 147.65625 C 527.03125 148.230469 526.976562 148.808594 526.976562 149.394531 C 526.976562 149.976562 527.03125 150.554688 527.148438 151.128906 C 527.261719 151.703125 527.429688 152.257812 527.652344 152.796875 C 527.875 153.335938 528.148438 153.851562 528.476562 154.335938 C 528.800781 154.820312 529.167969 155.269531 529.582031 155.683594 C 529.996094 156.097656 530.445312 156.464844 530.929688 156.789062 C 531.414062 157.113281 531.925781 157.386719 532.46875 157.613281 C 533.007812 157.835938 533.5625 158.003906 534.136719 158.117188 C 534.707031 158.230469 535.289062 158.289062 535.871094 158.289062 C 536.457031 158.289062 537.035156 158.230469 537.605469 158.117188 C 538.179688 158.003906 538.734375 157.835938 539.273438 157.613281 C 539.816406 157.386719 540.328125 157.113281 540.8125 156.789062 C 541.300781 156.464844 541.75 156.097656 542.160156 155.683594 C 542.574219 155.269531 542.941406 154.820312 543.265625 154.335938 C 543.59375 153.851562 543.867188 153.335938 544.089844 152.796875 C 544.3125 152.257812 544.480469 151.703125 544.597656 151.128906 C 544.710938 150.554688 544.765625 149.976562 544.765625 149.394531 C 544.765625 148.808594 544.710938 148.230469 544.597656 147.65625 C 544.480469 147.085938 544.3125 146.527344 544.089844 145.988281 C 543.867188 145.449219 543.59375 144.9375 543.265625 144.449219 C 542.941406 143.964844 542.574219 143.515625 542.160156 143.101562 C 541.75 142.691406 541.300781 142.320312 540.8125 141.996094 C 540.328125 141.671875 539.816406 141.398438 539.273438 141.175781 C 538.734375 140.953125 538.179688 140.78125 537.605469 140.667969 C 537.035156 140.554688 536.457031 140.496094 535.871094 140.496094 Z M 535.871094 140.496094 "/>
<path style=" stroke:none;fill-rule:nonzero;fill:rgb(85.099792%,85.099792%,85.099792%);fill-opacity:1;" d="M 535.871094 171.15625 C 535.289062 171.15625 534.707031 171.210938 534.136719 171.328125 C 533.5625 171.441406 533.007812 171.609375 532.46875 171.832031 C 531.925781 172.054688 531.414062 172.332031 530.929688 172.65625 C 530.445312 172.980469 529.996094 173.347656 529.582031 173.761719 C 529.167969 174.175781 528.800781 174.625 528.476562 175.109375 C 528.148438 175.59375 527.875 176.109375 527.652344 176.648438 C 527.429688 177.1875 527.261719 177.742188 527.148438 178.316406 C 527.03125 178.890625 526.976562 179.46875 526.976562 180.050781 C 526.976562 180.636719 527.03125 181.214844 527.148438 181.785156 C 527.261719 182.359375 527.429688 182.914062 527.652344 183.457031 C 527.875 183.996094 528.148438 184.507812 528.476562 184.992188 C 528.800781 185.480469 529.167969 185.929688 529.582031 186.339844 C 529.996094 186.753906 530.445312 187.125 530.929688 187.449219 C 531.414062 187.773438 531.925781 188.046875 532.46875 188.269531 C 533.007812 188.492188 533.5625 188.660156 534.136719 188.777344 C 534.707031 188.890625 535.289062 188.945312 535.871094 188.945312 C 536.457031 188.945312 537.035156 188.890625 537.605469 188.777344 C 538.179688 188.660156 538.734375 188.492188 539.273438 188.269531 C 539.816406 188.046875 540.328125 187.773438 540.8125 187.449219 C 541.300781 187.125 541.75 186.753906 542.160156 186.339844 C 542.574219 185.929688 542.941406 185.480469 543.265625 184.992188 C 543.59375 184.507812 543.867188 183.996094 544.089844 183.457031 C 544.3125 182.914062 544.480469 182.359375 544.597656 181.785156 C 544.710938 181.214844 544.765625 180.636719 544.765625 180.050781 C 544.765625 179.46875 544.710938 178.890625 544.597656 178.316406 C 544.480469 177.742188 544.3125 177.1875 544.089844 176.648438 C 543.867188 176.109375 543.59375 175.59375 543.265625 175.109375 C 542.941406 174.625 542.574219 174.175781 542.160156 173.761719 C 541.75 173.347656 541.300781 172.980469 540.8125 172.65625 C 540.328125 172.332031 539.816406 172.054688 539.273438 171.832031 C 538.734375 171.609375 538.179688 171.441406 537.605469 171.328125 C 537.035156 171.210938 536.457031 171.15625 535.871094 171.15625 Z M 535.871094 171.15625 "/>
<path style=" stroke:none;fill-rule:nonzero;fill:rgb(85.099792%,85.099792%,85.099792%);fill-opacity:1;" d="M 535.871094 207.078125 C 535.289062 207.078125 534.707031 207.136719 534.136719 207.25 C 533.5625 207.363281 533.007812 207.53125 532.46875 207.757812 C 531.925781 207.980469 531.414062 208.253906 530.929688 208.578125 C 530.445312 208.902344 529.996094 209.273438 529.582031 209.683594 C 529.167969 210.097656 528.800781 210.546875 528.476562 211.03125 C 528.148438 211.519531 527.875 212.03125 527.652344 212.570312 C 527.429688 213.109375 527.261719 213.667969 527.148438 214.238281 C 527.03125 214.8125 526.976562 215.390625 526.976562 215.976562 C 526.976562 216.558594 527.03125 217.136719 527.148438 217.710938 C 527.261719 218.285156 527.429688 218.839844 527.652344 219.378906 C 527.875 219.917969 528.148438 220.429688 528.476562 220.917969 C 528.800781 221.402344 529.167969 221.851562 529.582031 222.265625 C 529.996094 222.679688 530.445312 223.046875 530.929688 223.371094 C 531.414062 223.695312 531.925781 223.96875 532.46875 224.191406 C 533.007812 224.417969 533.5625 224.585938 534.136719 224.699219 C 534.707031 224.8125 535.289062 224.871094 535.871094 224.871094 C 536.457031 224.871094 537.035156 224.8125 537.605469 224.699219 C 538.179688 224.585938 538.734375 224.417969 539.273438 224.191406 C 539.816406 223.96875 540.328125 223.695312 540.8125 223.371094 C 541.300781 223.046875 541.75 222.679688 542.160156 222.265625 C 542.574219 221.851562 542.941406 221.402344 543.265625 220.917969 C 543.59375 220.429688 543.867188 219.917969 544.089844 219.378906 C 544.3125 218.839844 544.480469 218.285156 544.597656 217.710938 C 544.710938 217.136719 544.765625 216.558594 544.765625 215.976562 C 544.765625 215.390625 544.710938 214.8125 544.597656 214.238281 C 544.480469 213.667969 544.3125 213.109375 544.089844 212.570312 C 543.867188 212.03125 543.59375 211.519531 543.265625 211.03125 C 542.941406 210.546875 542.574219 210.097656 542.160156 209.683594 C 541.75 209.273438 541.300781 208.902344 540.8125 208.578125 C 540.328125 208.253906 539.816406 207.980469 539.273438 207.757812 C 538.734375 207.53125 538.179688 207.363281 537.605469 207.25 C 537.035156 207.136719 536.457031 207.078125 535.871094 207.078125 Z M 535.871094 207.078125 "/>
<path style=" stroke:none;fill-rule:nonzero;fill:rgb(85.099792%,85.099792%,85.099792%);fill-opacity:1;" d="M 535.871094 239.652344 C 535.289062 239.652344 534.707031 239.710938 534.136719 239.824219 C 533.5625 239.9375 533.007812 240.105469 532.46875 240.328125 C 531.925781 240.554688 531.414062 240.828125 530.929688 241.152344 C 530.445312 241.476562 529.996094 241.84375 529.582031 242.257812 C 529.167969 242.671875 528.800781 243.121094 528.476562 243.605469 C 528.148438 244.089844 527.875 244.605469 527.652344 245.144531 C 527.429688 245.683594 527.261719 246.238281 527.148438 246.8125 C 527.03125 247.386719 526.976562 247.964844 526.976562 248.546875 C 526.976562 249.132812 527.03125 249.710938 527.148438 250.28125 C 527.261719 250.855469 527.429688 251.414062 527.652344 251.953125 C 527.875 252.492188 528.148438 253.003906 528.476562 253.488281 C 528.800781 253.976562 529.167969 254.425781 529.582031 254.835938 C 529.996094 255.25 530.445312 255.621094 530.929688 255.945312 C 531.414062 256.269531 531.925781 256.542969 532.46875 256.765625 C 533.007812 256.988281 533.5625 257.160156 534.136719 257.273438 C 534.707031 257.386719 535.289062 257.441406 535.871094 257.441406 C 536.457031 257.441406 537.035156 257.386719 537.605469 257.273438 C 538.179688 257.160156 538.734375 256.988281 539.273438 256.765625 C 539.816406 256.542969 540.328125 256.269531 540.8125 255.945312 C 541.300781 255.621094 541.75 255.25 542.160156 254.835938 C 542.574219 254.425781 542.941406 253.976562 543.265625 253.488281 C 543.59375 253.003906 543.867188 252.492188 544.089844 251.953125 C 544.3125 251.414062 544.480469 250.855469 544.597656 250.28125 C 544.710938 249.710938 544.765625 249.132812 544.765625 248.546875 C 544.765625 247.964844 544.710938 247.386719 544.597656 246.8125 C 544.480469 246.238281 544.3125 245.683594 544.089844 245.144531 C 543.867188 244.605469 543.59375 244.089844 543.265625 243.605469 C 542.941406 243.121094 542.574219 242.671875 542.160156 242.257812 C 541.75 241.84375 541.300781 241.476562 540.8125 241.152344 C 540.328125 240.828125 539.816406 240.554688 539.273438 240.328125 C 538.734375 240.105469 538.179688 239.9375 537.605469 239.824219 C 537.035156 239.710938 536.457031 239.652344 535.871094 239.652344 Z M 535.871094 239.652344 "/>
<path style=" stroke:none;fill-rule:nonzero;fill:rgb(85.099792%,85.099792%,85.099792%);fill-opacity:1;" d="M 535.871094 275.175781 C 535.289062 275.175781 534.707031 275.230469 534.136719 275.34375 C 533.5625 275.460938 533.007812 275.628906 532.46875 275.851562 C 531.925781 276.074219 531.414062 276.347656 530.929688 276.671875 C 530.445312 276.996094 529.996094 277.367188 529.582031 277.78125 C 529.167969 278.191406 528.800781 278.640625 528.476562 279.128906 C 528.148438 279.613281 527.875 280.125 527.652344 280.664062 C 527.429688 281.207031 527.261719 281.761719 527.148438 282.335938 C 527.03125 282.90625 526.976562 283.484375 526.976562 284.070312 C 526.976562 284.652344 527.03125 285.230469 527.148438 285.804688 C 527.261719 286.378906 527.429688 286.933594 527.652344 287.472656 C 527.875 288.011719 528.148438 288.527344 528.476562 289.011719 C 528.800781 289.496094 529.167969 289.945312 529.582031 290.359375 C 529.996094 290.773438 530.445312 291.140625 530.929688 291.464844 C 531.414062 291.789062 531.925781 292.066406 532.46875 292.289062 C 533.007812 292.511719 533.5625 292.679688 534.136719 292.792969 C 534.707031 292.90625 535.289062 292.964844 535.871094 292.964844 C 536.457031 292.964844 537.035156 292.90625 537.605469 292.792969 C 538.179688 292.679688 538.734375 292.511719 539.273438 292.289062 C 539.816406 292.066406 540.328125 291.789062 540.8125 291.464844 C 541.300781 291.140625 541.75 290.773438 542.160156 290.359375 C 542.574219 289.945312 542.941406 289.496094 543.265625 289.011719 C 543.59375 288.527344 543.867188 288.011719 544.089844 287.472656 C 544.3125 286.933594 544.480469 286.378906 544.597656 285.804688 C 544.710938 285.230469 544.765625 284.652344 544.765625 284.070312 C 544.765625 283.484375 544.710938 282.90625 544.597656 282.335938 C 544.480469 281.761719 544.3125 281.207031 544.089844 280.664062 C 543.867188 280.125 543.59375 279.613281 543.265625 279.128906 C 542.941406 278.640625 542.574219 278.191406 542.160156 277.78125 C 541.75 277.367188 541.300781 276.996094 540.8125 276.671875 C 540.328125 276.347656 539.816406 276.074219 539.273438 275.851562 C 538.734375 275.628906 538.179688 275.460938 537.605469 275.34375 C 537.035156 275.230469 536.457031 275.175781 535.871094 275.175781 Z M 535.871094 275.175781 "/>
<path style=" stroke:none;fill-rule:nonzero;fill:rgb(85.099792%,85.099792%,85.099792%);fill-opacity:1;" d="M 535.871094 312.402344 C 535.289062 312.402344 534.707031 312.457031 534.136719 312.574219 C 533.5625 312.6875 533.007812 312.855469 532.46875 313.078125 C 531.925781 313.300781 531.414062 313.578125 530.929688 313.902344 C 530.445312 314.226562 529.996094 314.59375 529.582031 315.007812 C 529.167969 315.421875 528.800781 315.871094 528.476562 316.355469 C 528.148438 316.839844 527.875 317.351562 527.652344 317.894531 C 527.429688 318.433594 527.261719 318.988281 527.148438 319.5625 C 527.03125 320.132812 526.976562 320.714844 526.976562 321.296875 C 526.976562 321.882812 527.03125 322.460938 527.148438 323.03125 C 527.261719 323.605469 527.429688 324.160156 527.652344 324.703125 C 527.875 325.242188 528.148438 325.753906 528.476562 326.238281 C 528.800781 326.726562 529.167969 327.175781 529.582031 327.585938 C 529.996094 328 530.445312 328.367188 530.929688 328.695312 C 531.414062 329.019531 531.925781 329.292969 532.46875 329.515625 C 533.007812 329.738281 533.5625 329.90625 534.136719 330.023438 C 534.707031 330.136719 535.289062 330.191406 535.871094 330.191406 C 536.457031 330.191406 537.035156 330.136719 537.605469 330.023438 C 538.179688 329.90625 538.734375 329.738281 539.273438 329.515625 C 539.816406 329.292969 540.328125 329.019531 540.8125 328.695312 C 541.300781 328.367188 541.75 328 542.160156 327.585938 C 542.574219 327.175781 542.941406 326.726562 543.265625 326.238281 C 543.59375 325.753906 543.867188 325.242188 544.089844 324.703125 C 544.3125 324.160156 544.480469 323.605469 544.597656 323.03125 C 544.710938 322.460938 544.765625 321.882812 544.765625 321.296875 C 544.765625 320.714844 544.710938 320.132812 544.597656 319.5625 C 544.480469 318.988281 544.3125 318.433594 544.089844 317.894531 C 543.867188 317.351562 543.59375 316.839844 543.265625 316.355469 C 542.941406 315.871094 542.574219 315.421875 542.160156 315.007812 C 541.75 314.59375 541.300781 314.226562 540.8125 313.902344 C 540.328125 313.578125 539.816406 313.300781 539.273438 313.078125 C 538.734375 312.855469 538.179688 312.6875 537.605469 312.574219 C 537.035156 312.457031 536.457031 312.402344 535.871094 312.402344 Z M 535.871094 312.402344 "/>
<path style=" stroke:none;fill-rule:nonzero;fill:rgb(85.099792%,85.099792%,85.099792%);fill-opacity:1;" d="M 535.871094 347.441406 C 535.289062 347.441406 534.707031 347.496094 534.136719 347.609375 C 533.5625 347.722656 533.007812 347.894531 532.46875 348.117188 C 531.925781 348.339844 531.414062 348.613281 530.929688 348.9375 C 530.445312 349.261719 529.996094 349.632812 529.582031 350.046875 C 529.167969 350.457031 528.800781 350.90625 528.476562 351.394531 C 528.148438 351.878906 527.875 352.390625 527.652344 352.929688 C 527.429688 353.46875 527.261719 354.027344 527.148438 354.597656 C 527.03125 355.171875 526.976562 355.75 526.976562 356.335938 C 526.976562 356.917969 527.03125 357.496094 527.148438 358.070312 C 527.261719 358.644531 527.429688 359.199219 527.652344 359.738281 C 527.875 360.277344 528.148438 360.792969 528.476562 361.277344 C 528.800781 361.761719 529.167969 362.210938 529.582031 362.625 C 529.996094 363.039062 530.445312 363.40625 530.929688 363.730469 C 531.414062 364.054688 531.925781 364.328125 532.46875 364.554688 C 533.007812 364.777344 533.5625 364.945312 534.136719 365.058594 C 534.707031 365.171875 535.289062 365.230469 535.871094 365.230469 C 536.457031 365.230469 537.035156 365.171875 537.605469 365.058594 C 538.179688 364.945312 538.734375 364.777344 539.273438 364.554688 C 539.816406 364.328125 540.328125 364.054688 540.8125 363.730469 C 541.300781 363.40625 541.75 363.039062 542.160156 362.625 C 542.574219 362.210938 542.941406 361.761719 543.265625 361.277344 C 543.59375 360.792969 543.867188 360.277344 544.089844 359.738281 C 544.3125 359.199219 544.480469 358.644531 544.597656 358.070312 C 544.710938 357.496094 544.765625 356.917969 544.765625 356.335938 C 544.765625 355.75 544.710938 355.171875 544.597656 354.597656 C 544.480469 354.027344 544.3125 353.46875 544.089844 352.929688 C 543.867188 352.390625 543.59375 351.878906 543.265625 351.394531 C 542.941406 350.90625 542.574219 350.457031 542.160156 350.046875 C 541.75 349.632812 541.300781 349.261719 540.8125 348.9375 C 540.328125 348.613281 539.816406 348.339844 539.273438 348.117188 C 538.734375 347.894531 538.179688 347.722656 537.605469 347.609375 C 537.035156 347.496094 536.457031 347.441406 535.871094 347.441406 Z M 535.871094 347.441406 "/>
<path style=" stroke:none;fill-rule:nonzero;fill:rgb(85.099792%,85.099792%,85.099792%);fill-opacity:1;" d="M 535.871094 381.382812 C 535.289062 381.382812 534.707031 381.4375 534.136719 381.554688 C 533.5625 381.667969 533.007812 381.835938 532.46875 382.058594 C 531.925781 382.28125 531.414062 382.558594 530.929688 382.882812 C 530.445312 383.207031 529.996094 383.574219 529.582031 383.988281 C 529.167969 384.402344 528.800781 384.851562 528.476562 385.335938 C 528.148438 385.820312 527.875 386.335938 527.652344 386.875 C 527.429688 387.414062 527.261719 387.96875 527.148438 388.542969 C 527.03125 389.117188 526.976562 389.695312 526.976562 390.277344 C 526.976562 390.863281 527.03125 391.441406 527.148438 392.011719 C 527.261719 392.585938 527.429688 393.140625 527.652344 393.683594 C 527.875 394.222656 528.148438 394.734375 528.476562 395.21875 C 528.800781 395.707031 529.167969 396.15625 529.582031 396.566406 C 529.996094 396.980469 530.445312 397.351562 530.929688 397.675781 C 531.414062 398 531.925781 398.273438 532.46875 398.496094 C 533.007812 398.71875 533.5625 398.886719 534.136719 399.003906 C 534.707031 399.117188 535.289062 399.171875 535.871094 399.171875 C 536.457031 399.171875 537.035156 399.117188 537.605469 399.003906 C 538.179688 398.886719 538.734375 398.71875 539.273438 398.496094 C 539.816406 398.273438 540.328125 398 540.8125 397.675781 C 541.300781 397.351562 541.75 396.980469 542.160156 396.566406 C 542.574219 396.15625 542.941406 395.707031 543.265625 395.21875 C 543.59375 394.734375 543.867188 394.222656 544.089844 393.683594 C 544.3125 393.140625 544.480469 392.585938 544.597656 392.011719 C 544.710938 391.441406 544.765625 390.863281 544.765625 390.277344 C 544.765625 389.695312 544.710938 389.117188 544.597656 388.542969 C 544.480469 387.96875 544.3125 387.414062 544.089844 386.875 C 543.867188 386.335938 543.59375 385.820312 543.265625 385.335938 C 542.941406 384.851562 542.574219 384.402344 542.160156 383.988281 C 541.75 383.574219 541.300781 383.207031 540.8125 382.882812 C 540.328125 382.558594 539.816406 382.28125 539.273438 382.058594 C 538.734375 381.835938 538.179688 381.667969 537.605469 381.554688 C 537.035156 381.4375 536.457031 381.382812 535.871094 381.382812 Z M 535.871094 381.382812 "/>
<path style=" stroke:none;fill-rule:nonzero;fill:rgb(85.099792%,85.099792%,85.099792%);fill-opacity:1;" d="M 535.871094 413.0625 C 535.289062 413.0625 534.707031 413.117188 534.136719 413.230469 C 533.5625 413.347656 533.007812 413.515625 532.46875 413.738281 C 531.925781 413.960938 531.414062 414.234375 530.929688 414.558594 C 530.445312 414.886719 529.996094 415.253906 529.582031 415.667969 C 529.167969 416.078125 528.800781 416.527344 528.476562 417.015625 C 528.148438 417.5 527.875 418.011719 527.652344 418.550781 C 527.429688 419.09375 527.261719 419.648438 527.148438 420.222656 C 527.03125 420.792969 526.976562 421.371094 526.976562 421.957031 C 526.976562 422.539062 527.03125 423.121094 527.148438 423.691406 C 527.261719 424.265625 527.429688 424.820312 527.652344 425.359375 C 527.875 425.902344 528.148438 426.414062 528.476562 426.898438 C 528.800781 427.382812 529.167969 427.832031 529.582031 428.246094 C 529.996094 428.660156 530.445312 429.027344 530.929688 429.351562 C 531.414062 429.675781 531.925781 429.953125 532.46875 430.175781 C 533.007812 430.398438 533.5625 430.566406 534.136719 430.679688 C 534.707031 430.796875 535.289062 430.851562 535.871094 430.851562 C 536.457031 430.851562 537.035156 430.796875 537.605469 430.679688 C 538.179688 430.566406 538.734375 430.398438 539.273438 430.175781 C 539.816406 429.953125 540.328125 429.675781 540.8125 429.351562 C 541.300781 429.027344 541.75 428.660156 542.160156 428.246094 C 542.574219 427.832031 542.941406 427.382812 543.265625 426.898438 C 543.59375 426.414062 543.867188 425.902344 544.089844 425.359375 C 544.3125 424.820312 544.480469 424.265625 544.597656 423.691406 C 544.710938 423.121094 544.765625 422.539062 544.765625 421.957031 C 544.765625 421.371094 544.710938 420.792969 544.597656 420.222656 C 544.480469 419.648438 544.3125 419.09375 544.089844 418.550781 C 543.867188 418.011719 543.59375 417.5 543.265625 417.015625 C 542.941406 416.527344 542.574219 416.078125 542.160156 415.667969 C 541.75 415.253906 541.300781 414.886719 540.8125 414.558594 C 540.328125 414.234375 539.816406 413.960938 539.273438 413.738281 C 538.734375 413.515625 538.179688 413.347656 537.605469 413.230469 C 537.035156 413.117188 536.457031 413.0625 535.871094 413.0625 Z M 535.871094 413.0625 "/>
<path style=" stroke:none;fill-rule:nonzero;fill:rgb(85.099792%,85.099792%,85.099792%);fill-opacity:1;" d="M 535.871094 449.269531 C 535.289062 449.269531 534.707031 449.324219 534.136719 449.4375 C 533.5625 449.554688 533.007812 449.722656 532.46875 449.945312 C 531.925781 450.167969 531.414062 450.441406 530.929688 450.765625 C 530.445312 451.089844 529.996094 451.460938 529.582031 451.875 C 529.167969 452.285156 528.800781 452.734375 528.476562 453.222656 C 528.148438 453.707031 527.875 454.21875 527.652344 454.757812 C 527.429688 455.300781 527.261719 455.855469 527.148438 456.429688 C 527.03125 457 526.976562 457.578125 526.976562 458.164062 C 526.976562 458.746094 527.03125 459.324219 527.148438 459.898438 C 527.261719 460.472656 527.429688 461.027344 527.652344 461.566406 C 527.875 462.105469 528.148438 462.621094 528.476562 463.105469 C 528.800781 463.589844 529.167969 464.039062 529.582031 464.453125 C 529.996094 464.867188 530.445312 465.234375 530.929688 465.558594 C 531.414062 465.882812 531.925781 466.160156 532.46875 466.382812 C 533.007812 466.605469 533.5625 466.773438 534.136719 466.886719 C 534.707031 467.003906 535.289062 467.058594 535.871094 467.058594 C 536.457031 467.058594 537.035156 467.003906 537.605469 466.886719 C 538.179688 466.773438 538.734375 466.605469 539.273438 466.382812 C 539.816406 466.160156 540.328125 465.882812 540.8125 465.558594 C 541.300781 465.234375 541.75 464.867188 542.160156 464.453125 C 542.574219 464.039062 542.941406 463.589844 543.265625 463.105469 C 543.59375 462.621094 543.867188 462.105469 544.089844 461.566406 C 544.3125 461.027344 544.480469 460.472656 544.597656 459.898438 C 544.710938 459.324219 544.765625 458.746094 544.765625 458.164062 C 544.765625 457.578125 544.710938 457 544.597656 456.429688 C 544.480469 455.855469 544.3125 455.300781 544.089844 454.757812 C 543.867188 454.21875 543.59375 453.707031 543.265625 453.222656 C 542.941406 452.734375 542.574219 452.285156 542.160156 451.875 C 541.75 451.460938 541.300781 451.089844 540.8125 450.765625 C 540.328125 450.441406 539.816406 450.167969 539.273438 449.945312 C 538.734375 449.722656 538.179688 449.554688 537.605469 449.4375 C 537.035156 449.324219 536.457031 449.269531 535.871094 449.269531 Z M 535.871094 449.269531 "/>
<g clip-path="url(#clip14)" clip-rule="nonzero">
<path style=" stroke:none;fill-rule:nonzero;fill:rgb(36.859131%,36.468506%,35.688782%);fill-opacity:1;" d="M 508.195312 -10.382812 C 523.832031 -10.382812 536.554688 2.492188 536.554688 18.328125 L 538.542969 18.328125 C 538.542969 1.386719 524.929688 -12.398438 508.195312 -12.398438 C 491.464844 -12.398438 477.851562 1.386719 477.851562 18.328125 L 479.839844 18.328125 C 479.839844 2.492188 492.5625 -10.382812 508.195312 -10.382812 Z M 508.195312 -10.382812 "/>
</g>
<g clip-path="url(#clip15)" clip-rule="nonzero">
<path style=" stroke:none;fill-rule:nonzero;fill:rgb(36.859131%,36.468506%,35.688782%);fill-opacity:1;" d="M 508.195312 -4.058594 C 523.832031 -4.058594 536.554688 8.816406 536.554688 24.652344 L 538.542969 24.652344 C 538.542969 7.710938 524.929688 -6.074219 508.195312 -6.074219 C 491.464844 -6.074219 477.851562 7.710938 477.851562 24.652344 L 479.839844 24.652344 C 479.839844 8.816406 492.5625 -4.058594 508.195312 -4.058594 Z M 508.195312 -4.058594 "/>
</g>
<g clip-path="url(#clip16)" clip-rule="nonzero">
<path style=" stroke:none;fill-rule:nonzero;fill:rgb(36.859131%,36.468506%,35.688782%);fill-opacity:1;" d="M 508.195312 20 C 523.832031 20 536.554688 32.878906 536.554688 48.714844 L 538.542969 48.714844 C 538.542969 31.773438 524.929688 17.988281 508.195312 17.988281 C 491.464844 17.988281 477.851562 31.773438 477.851562 48.714844 L 479.839844 48.714844 C 479.839844 32.878906 492.5625 20 508.195312 20 Z M 508.195312 20 "/>
</g>
<g clip-path="url(#clip17)" clip-rule="nonzero">
<path style=" stroke:none;fill-rule:nonzero;fill:rgb(36.859131%,36.468506%,35.688782%);fill-opacity:1;" d="M 508.195312 26.378906 C 523.832031 26.378906 536.554688 39.253906 536.554688 55.089844 L 538.542969 55.089844 C 538.542969 38.148438 524.929688 24.363281 508.195312 24.363281 C 491.464844 24.363281 477.851562 38.148438 477.851562 55.089844 L 479.839844 55.089844 C 479.839844 39.253906 492.5625 26.378906 508.195312 26.378906 Z M 508.195312 26.378906 "/>
</g>
<g clip-path="url(#clip18)" clip-rule="nonzero">
<path style=" stroke:none;fill-rule:nonzero;fill:rgb(36.859131%,36.468506%,35.688782%);fill-opacity:1;" d="M 508.195312 55.3125 C 523.832031 55.3125 536.554688 68.1875 536.554688 84.027344 L 538.542969 84.027344 C 538.542969 67.082031 524.929688 53.296875 508.195312 53.296875 C 491.464844 53.296875 477.851562 67.082031 477.851562 84.027344 L 479.839844 84.027344 C 479.839844 68.1875 492.5625 55.3125 508.195312 55.3125 Z M 508.195312 55.3125 "/>
</g>
<g clip-path="url(#clip19)" clip-rule="nonzero">
<path style=" stroke:none;fill-rule:nonzero;fill:rgb(36.859131%,36.468506%,35.688782%);fill-opacity:1;" d="M 508.195312 61.636719 C 523.832031 61.636719 536.554688 74.511719 536.554688 90.347656 L 538.542969 90.347656 C 538.542969 73.40625 524.929688 59.621094 508.195312 59.621094 C 491.464844 59.621094 477.851562 73.40625 477.851562 90.347656 L 479.839844 90.347656 C 479.839844 74.511719 492.5625 61.636719 508.195312 61.636719 Z M 508.195312 61.636719 "/>
</g>
<g clip-path="url(#clip20)" clip-rule="nonzero">
<path style=" stroke:none;fill-rule:nonzero;fill:rgb(36.859131%,36.468506%,35.688782%);fill-opacity:1;" d="M 508.195312 92.074219 C 523.832031 92.074219 536.554688 104.949219 536.554688 120.785156 L 538.542969 120.785156 C 538.542969 103.84375 524.929688 90.058594 508.195312 90.058594 C 491.464844 90.058594 477.851562 103.84375 477.851562 120.785156 L 479.839844 120.785156 C 479.839844 104.949219 492.5625 92.074219 508.195312 92.074219 Z M 508.195312 92.074219 "/>
</g>
<g clip-path="url(#clip21)" clip-rule="nonzero">
<path style=" stroke:none;fill-rule:nonzero;fill:rgb(36.859131%,36.468506%,35.688782%);fill-opacity:1;" d="M 508.195312 96.71875 C 523.832031 96.71875 536.554688 109.59375 536.554688 125.433594 L 538.542969 125.433594 C 538.542969 108.488281 524.929688 94.707031 508.195312 94.707031 C 491.464844 94.707031 477.851562 108.488281 477.851562 125.433594 L 479.839844 125.433594 C 479.839844 109.59375 492.5625 96.71875 508.195312 96.71875 Z M 508.195312 96.71875 "/>
</g>
<g clip-path="url(#clip22)" clip-rule="nonzero">
<path style=" stroke:none;fill-rule:nonzero;fill:rgb(36.859131%,36.468506%,35.688782%);fill-opacity:1;" d="M 508.195312 122.511719 C 523.832031 122.511719 536.554688 135.386719 536.554688 151.226562 L 538.542969 151.226562 C 538.542969 134.28125 524.929688 120.496094 508.195312 120.496094 C 491.464844 120.496094 477.851562 134.28125 477.851562 151.226562 L 479.839844 151.226562 C 479.839844 135.386719 492.5625 122.511719 508.195312 122.511719 Z M 508.195312 122.511719 "/>
</g>
<g clip-path="url(#clip23)" clip-rule="nonzero">
<path style=" stroke:none;fill-rule:nonzero;fill:rgb(36.859131%,36.468506%,35.688782%);fill-opacity:1;" d="M 508.195312 126.992188 C 523.832031 126.992188 536.554688 139.871094 536.554688 155.707031 L 538.542969 155.707031 C 538.542969 138.765625 524.929688 124.980469 508.195312 124.980469 C 491.464844 124.980469 477.851562 138.765625 477.851562 155.707031 L 479.839844 155.707031 C 479.839844 139.871094 492.5625 126.992188 508.195312 126.992188 Z M 508.195312 126.992188 "/>
</g>
<g clip-path="url(#clip24)" clip-rule="nonzero">
<path style=" stroke:none;fill-rule:nonzero;fill:rgb(36.859131%,36.468506%,35.688782%);fill-opacity:1;" d="M 508.195312 151.109375 C 523.832031 151.109375 536.554688 163.984375 536.554688 179.824219 L 538.542969 179.824219 C 538.542969 162.878906 524.929688 149.09375 508.195312 149.09375 C 491.464844 149.09375 477.851562 162.878906 477.851562 179.824219 L 479.839844 179.824219 C 479.839844 163.984375 492.5625 151.109375 508.195312 151.109375 Z M 508.195312 151.109375 "/>
</g>
<g clip-path="url(#clip25)" clip-rule="nonzero">
<path style=" stroke:none;fill-rule:nonzero;fill:rgb(36.859131%,36.468506%,35.688782%);fill-opacity:1;" d="M 508.195312 157.433594 C 523.832031 157.433594 536.554688 170.308594 536.554688 186.144531 L 538.542969 186.144531 C 538.542969 169.203125 524.929688 155.417969 508.195312 155.417969 C 491.464844 155.417969 477.851562 169.203125 477.851562 186.144531 L 479.839844 186.144531 C 479.839844 170.308594 492.5625 157.433594 508.195312 157.433594 Z M 508.195312 157.433594 "/>
</g>
<g clip-path="url(#clip26)" clip-rule="nonzero">
<path style=" stroke:none;fill-rule:nonzero;fill:rgb(36.859131%,36.468506%,35.688782%);fill-opacity:1;" d="M 508.195312 187.253906 C 523.832031 187.253906 536.554688 200.128906 536.554688 215.964844 L 538.542969 215.964844 C 538.542969 199.023438 524.929688 185.238281 508.195312 185.238281 C 491.464844 185.238281 477.851562 199.023438 477.851562 215.964844 L 479.839844 215.964844 C 479.839844 200.128906 492.5625 187.253906 508.195312 187.253906 Z M 508.195312 187.253906 "/>
</g>
<g clip-path="url(#clip27)" clip-rule="nonzero">
<path style=" stroke:none;fill-rule:nonzero;fill:rgb(36.859131%,36.468506%,35.688782%);fill-opacity:1;" d="M 508.195312 193.574219 C 523.832031 193.574219 536.554688 206.453125 536.554688 222.289062 L 538.542969 222.289062 C 538.542969 205.347656 524.929688 191.5625 508.195312 191.5625 C 491.464844 191.5625 477.851562 205.347656 477.851562 222.289062 L 479.839844 222.289062 C 479.839844 206.453125 492.5625 193.574219 508.195312 193.574219 Z M 508.195312 193.574219 "/>
</g>
<g clip-path="url(#clip28)" clip-rule="nonzero">
<path style=" stroke:none;fill-rule:nonzero;fill:rgb(36.859131%,36.468506%,35.688782%);fill-opacity:1;" d="M 508.195312 219.824219 C 523.832031 219.824219 536.554688 232.703125 536.554688 248.539062 L 538.542969 248.539062 C 538.542969 231.59375 524.929688 217.8125 508.195312 217.8125 C 491.464844 217.8125 477.851562 231.59375 477.851562 248.539062 L 479.839844 248.539062 C 479.839844 232.703125 492.5625 219.824219 508.195312 219.824219 Z M 508.195312 219.824219 "/>
</g>
<g clip-path="url(#clip29)" clip-rule="nonzero">
<path style=" stroke:none;fill-rule:nonzero;fill:rgb(36.859131%,36.468506%,35.688782%);fill-opacity:1;" d="M 508.195312 226.148438 C 523.832031 226.148438 536.554688 239.027344 536.554688 254.863281 L 538.542969 254.863281 C 538.542969 237.917969 524.929688 224.136719 508.195312 224.136719 C 491.464844 224.136719 477.851562 237.917969 477.851562 254.863281 L 479.839844 254.863281 C 479.839844 239.027344 492.5625 226.148438 508.195312 226.148438 Z M 508.195312 226.148438 "/>
</g>
<g clip-path="url(#clip30)" clip-rule="nonzero">
<path style=" stroke:none;fill-rule:nonzero;fill:rgb(36.859131%,36.468506%,35.688782%);fill-opacity:1;" d="M 508.195312 255.347656 C 523.832031 255.347656 536.554688 268.222656 536.554688 284.0625 L 538.542969 284.0625 C 538.542969 267.117188 524.929688 253.332031 508.195312 253.332031 C 491.464844 253.332031 477.851562 267.117188 477.851562 284.0625 L 479.839844 284.0625 C 479.839844 268.222656 492.5625 255.347656 508.195312 255.347656 Z M 508.195312 255.347656 "/>
</g>
<g clip-path="url(#clip31)" clip-rule="nonzero">
<path style=" stroke:none;fill-rule:nonzero;fill:rgb(36.859131%,36.468506%,35.688782%);fill-opacity:1;" d="M 508.195312 261.671875 C 523.832031 261.671875 536.554688 274.546875 536.554688 290.382812 L 538.542969 290.382812 C 538.542969 273.441406 524.929688 259.65625 508.195312 259.65625 C 491.464844 259.65625 477.851562 273.441406 477.851562 290.382812 L 479.839844 290.382812 C 479.839844 274.546875 492.5625 261.671875 508.195312 261.671875 Z M 508.195312 261.671875 "/>
</g>
<g clip-path="url(#clip32)" clip-rule="nonzero">
<path style=" stroke:none;fill-rule:nonzero;fill:rgb(36.859131%,36.468506%,35.688782%);fill-opacity:1;" d="M 508.195312 294.679688 C 523.832031 294.679688 536.554688 307.558594 536.554688 323.394531 L 538.542969 323.394531 C 538.542969 306.449219 524.929688 292.667969 508.195312 292.667969 C 491.464844 292.667969 477.851562 306.449219 477.851562 323.394531 L 479.839844 323.394531 C 479.839844 307.558594 492.5625 294.679688 508.195312 294.679688 Z M 508.195312 294.679688 "/>
</g>
<g clip-path="url(#clip33)" clip-rule="nonzero">
<path style=" stroke:none;fill-rule:nonzero;fill:rgb(36.859131%,36.468506%,35.688782%);fill-opacity:1;" d="M 508.195312 301.46875 C 523.832031 301.46875 536.554688 314.347656 536.554688 330.183594 L 538.542969 330.183594 C 538.542969 313.238281 524.929688 299.457031 508.195312 299.457031 C 491.464844 299.457031 477.851562 313.238281 477.851562 330.183594 L 479.839844 330.183594 C 479.839844 314.347656 492.5625 301.46875 508.195312 301.46875 Z M 508.195312 301.46875 "/>
</g>
<g clip-path="url(#clip34)" clip-rule="nonzero">
<path style=" stroke:none;fill-rule:nonzero;fill:rgb(36.859131%,36.468506%,35.688782%);fill-opacity:1;" d="M 508.195312 327.613281 C 523.832031 327.613281 536.554688 340.488281 536.554688 356.328125 L 538.542969 356.328125 C 538.542969 339.382812 524.929688 325.597656 508.195312 325.597656 C 491.464844 325.597656 477.851562 339.382812 477.851562 356.328125 L 479.839844 356.328125 C 479.839844 340.488281 492.5625 327.613281 508.195312 327.613281 Z M 508.195312 327.613281 "/>
</g>
<g clip-path="url(#clip35)" clip-rule="nonzero">
<path style=" stroke:none;fill-rule:nonzero;fill:rgb(36.859131%,36.468506%,35.688782%);fill-opacity:1;" d="M 508.195312 333.9375 C 523.832031 333.9375 536.554688 346.8125 536.554688 362.648438 L 538.542969 362.648438 C 538.542969 345.707031 524.929688 331.921875 508.195312 331.921875 C 491.464844 331.921875 477.851562 345.707031 477.851562 362.648438 L 479.839844 362.648438 C 479.839844 346.8125 492.5625 333.9375 508.195312 333.9375 Z M 508.195312 333.9375 "/>
</g>
<g clip-path="url(#clip36)" clip-rule="nonzero">
<path style=" stroke:none;fill-rule:nonzero;fill:rgb(36.859131%,36.468506%,35.688782%);fill-opacity:1;" d="M 508.195312 361.554688 C 523.832031 361.554688 536.554688 374.433594 536.554688 390.269531 L 538.542969 390.269531 C 538.542969 373.324219 524.929688 359.542969 508.195312 359.542969 C 491.464844 359.542969 477.851562 373.324219 477.851562 390.269531 L 479.839844 390.269531 C 479.839844 374.433594 492.5625 361.554688 508.195312 361.554688 Z M 508.195312 361.554688 "/>
</g>
<g clip-path="url(#clip37)" clip-rule="nonzero">
<path style=" stroke:none;fill-rule:nonzero;fill:rgb(36.859131%,36.468506%,35.688782%);fill-opacity:1;" d="M 508.195312 367.878906 C 523.832031 367.878906 536.554688 380.757812 536.554688 396.59375 L 538.542969 396.59375 C 538.542969 379.648438 524.929688 365.867188 508.195312 365.867188 C 491.464844 365.867188 477.851562 379.648438 477.851562 396.59375 L 479.839844 396.59375 C 479.839844 380.757812 492.5625 367.878906 508.195312 367.878906 Z M 508.195312 367.878906 "/>
</g>
<g clip-path="url(#clip38)" clip-rule="nonzero">
<path style=" stroke:none;fill-rule:nonzero;fill:rgb(36.859131%,36.468506%,35.688782%);fill-opacity:1;" d="M 508.195312 391.992188 C 523.832031 391.992188 536.554688 404.871094 536.554688 420.707031 L 538.542969 420.707031 C 538.542969 403.761719 524.929688 389.980469 508.195312 389.980469 C 491.464844 389.980469 477.851562 403.761719 477.851562 420.707031 L 479.839844 420.707031 C 479.839844 404.871094 492.5625 391.992188 508.195312 391.992188 Z M 508.195312 391.992188 "/>
</g>
<g clip-path="url(#clip39)" clip-rule="nonzero">
<path style=" stroke:none;fill-rule:nonzero;fill:rgb(36.859131%,36.468506%,35.688782%);fill-opacity:1;" d="M 508.195312 398.316406 C 523.832031 398.316406 536.554688 411.195312 536.554688 427.03125 L 538.542969 427.03125 C 538.542969 410.085938 524.929688 396.304688 508.195312 396.304688 C 491.464844 396.304688 477.851562 410.085938 477.851562 427.03125 L 479.839844 427.03125 C 479.839844 411.195312 492.5625 398.316406 508.195312 398.316406 Z M 508.195312 398.316406 "/>
</g>
<g clip-path="url(#clip40)" clip-rule="nonzero">
<path style=" stroke:none;fill-rule:nonzero;fill:rgb(36.859131%,36.468506%,35.688782%);fill-opacity:1;" d="M 508.195312 428.753906 C 523.832031 428.753906 536.554688 441.632812 536.554688 457.46875 L 538.542969 457.46875 C 538.542969 440.523438 524.929688 426.742188 508.195312 426.742188 C 491.464844 426.742188 477.851562 440.523438 477.851562 457.46875 L 479.839844 457.46875 C 479.839844 441.632812 492.5625 428.753906 508.195312 428.753906 Z M 508.195312 428.753906 "/>
</g>
<g clip-path="url(#clip41)" clip-rule="nonzero">
<path style=" stroke:none;fill-rule:nonzero;fill:rgb(36.859131%,36.468506%,35.688782%);fill-opacity:1;" d="M 508.195312 435.765625 C 523.832031 435.765625 536.554688 448.640625 536.554688 464.476562 L 538.542969 464.476562 C 538.542969 447.535156 524.929688 433.75 508.195312 433.75 C 491.464844 433.75 477.851562 447.535156 477.851562 464.476562 L 479.839844 464.476562 C 479.839844 448.640625 492.5625 435.765625 508.195312 435.765625 Z M 508.195312 435.765625 "/>
</g>
<path style="fill:none;stroke-width:1;stroke-linecap:round;stroke-linejoin:miter;stroke:rgb(88.238525%,6.669617%,6.669617%);stroke-opacity:1;stroke-miterlimit:4;" d="M 0.499344 -0.000677327 L 317.013866 -0.000677327 " transform="matrix(0.000000000000000092,1.499166,-1.499203,0.000000000000000092,560.088828,0.00530724)"/>
<path style="fill:none;stroke-width:1;stroke-linecap:round;stroke-linejoin:miter;stroke:rgb(88.238525%,6.669617%,6.669617%);stroke-opacity:1;stroke-miterlimit:4;" d="M 0.499344 0.00031436 L 317.013866 0.00031436 " transform="matrix(0.000000000000000092,1.499166,-1.499203,0.000000000000000092,572.566878,0.00530724)"/>
</g>
</svg>
