<?xml version="1.0" encoding="UTF-8"?>
<svg xmlns="http://www.w3.org/2000/svg" xmlns:xlink="http://www.w3.org/1999/xlink" width="525pt" height="487.499991pt" viewBox="0 0 525 487.499991" version="1.2">
<defs>
<clipPath id="clip1">
  <path d="M 27 0 L 516 0 L 516 487 L 27 487 Z M 27 0 "/>
</clipPath>
<clipPath id="clip2">
  <path d="M 27 1 L 29 1 L 29 487 L 27 487 Z M 27 1 "/>
</clipPath>
</defs>
<g id="surface1">
<g clip-path="url(#clip1)" clip-rule="nonzero">
<path style=" stroke:none;fill-rule:nonzero;fill:rgb(100%,100%,100%);fill-opacity:1;" d="M 27.824219 0 L 515.796875 0 L 515.796875 487.96875 L 27.824219 487.96875 Z M 27.824219 0 "/>
</g>
<g clip-path="url(#clip2)" clip-rule="nonzero">
<path style="fill:none;stroke-width:1;stroke-linecap:round;stroke-linejoin:miter;stroke:rgb(85.099792%,85.099792%,85.099792%);stroke-opacity:1;stroke-miterlimit:4;" d="M 0.499656 -0.00262663 L 649.497987 -0.00262663 " transform="matrix(0.000000000000000046,0.749232,-0.732074,0.000000000000000045,28.244171,1.680329)"/>
</g>
<path style=" stroke:none;fill-rule:nonzero;fill:rgb(85.099792%,85.099792%,85.099792%);fill-opacity:1;" d="M 46.929688 9.660156 C 46.332031 9.660156 45.738281 9.71875 45.152344 9.835938 C 44.566406 9.953125 43.996094 10.125 43.445312 10.355469 C 42.894531 10.582031 42.371094 10.863281 41.871094 11.195312 C 41.375 11.527344 40.914062 11.902344 40.492188 12.328125 C 40.070312 12.75 39.695312 13.207031 39.363281 13.707031 C 39.03125 14.203125 38.75 14.726562 38.519531 15.277344 C 38.292969 15.832031 38.121094 16.398438 38.003906 16.984375 C 37.886719 17.570312 37.828125 18.164062 37.828125 18.761719 C 37.828125 19.359375 37.886719 19.949219 38.003906 20.535156 C 38.121094 21.125 38.292969 21.691406 38.519531 22.246094 C 38.75 22.796875 39.03125 23.320312 39.363281 23.816406 C 39.695312 24.316406 40.070312 24.773438 40.492188 25.195312 C 40.914062 25.621094 41.375 25.996094 41.871094 26.328125 C 42.371094 26.660156 42.894531 26.941406 43.445312 27.167969 C 43.996094 27.398438 44.566406 27.570312 45.152344 27.6875 C 45.738281 27.804688 46.332031 27.863281 46.929688 27.863281 C 47.527344 27.863281 48.117188 27.804688 48.703125 27.6875 C 49.289062 27.570312 49.859375 27.398438 50.410156 27.167969 C 50.964844 26.941406 51.488281 26.660156 51.984375 26.328125 C 52.480469 25.996094 52.941406 25.621094 53.363281 25.195312 C 53.785156 24.773438 54.164062 24.316406 54.496094 23.816406 C 54.828125 23.320312 55.109375 22.796875 55.335938 22.246094 C 55.566406 21.691406 55.738281 21.125 55.855469 20.535156 C 55.972656 19.949219 56.027344 19.359375 56.027344 18.761719 C 56.027344 18.164062 55.972656 17.570312 55.855469 16.984375 C 55.738281 16.398438 55.566406 15.832031 55.335938 15.277344 C 55.109375 14.726562 54.828125 14.203125 54.496094 13.707031 C 54.164062 13.207031 53.785156 12.75 53.363281 12.328125 C 52.941406 11.902344 52.480469 11.527344 51.984375 11.195312 C 51.488281 10.863281 50.964844 10.582031 50.410156 10.355469 C 49.859375 10.125 49.289062 9.953125 48.703125 9.835938 C 48.117188 9.71875 47.527344 9.660156 46.929688 9.660156 Z M 46.929688 9.660156 "/>
<path style=" stroke:none;fill-rule:nonzero;fill:rgb(85.099792%,85.099792%,85.099792%);fill-opacity:1;" d="M 46.929688 40.746094 C 46.332031 40.746094 45.738281 40.804688 45.152344 40.921875 C 44.566406 41.039062 43.996094 41.210938 43.445312 41.441406 C 42.894531 41.667969 42.371094 41.949219 41.871094 42.28125 C 41.375 42.613281 40.914062 42.992188 40.492188 43.414062 C 40.070312 43.835938 39.695312 44.296875 39.363281 44.792969 C 39.03125 45.289062 38.75 45.8125 38.519531 46.367188 C 38.292969 46.917969 38.121094 47.488281 38.003906 48.074219 C 37.886719 48.660156 37.828125 49.25 37.828125 49.847656 C 37.828125 50.445312 37.886719 51.039062 38.003906 51.625 C 38.121094 52.210938 38.292969 52.777344 38.519531 53.332031 C 38.75 53.882812 39.03125 54.40625 39.363281 54.902344 C 39.695312 55.402344 40.070312 55.859375 40.492188 56.285156 C 40.914062 56.707031 41.375 57.082031 41.871094 57.414062 C 42.371094 57.746094 42.894531 58.027344 43.445312 58.257812 C 43.996094 58.484375 44.566406 58.65625 45.152344 58.773438 C 45.738281 58.890625 46.332031 58.949219 46.929688 58.949219 C 47.527344 58.949219 48.117188 58.890625 48.703125 58.773438 C 49.289062 58.65625 49.859375 58.484375 50.410156 58.257812 C 50.964844 58.027344 51.488281 57.746094 51.984375 57.414062 C 52.480469 57.082031 52.941406 56.707031 53.363281 56.285156 C 53.785156 55.859375 54.164062 55.402344 54.496094 54.902344 C 54.828125 54.40625 55.109375 53.882812 55.335938 53.332031 C 55.566406 52.777344 55.738281 52.210938 55.855469 51.625 C 55.972656 51.039062 56.027344 50.445312 56.027344 49.847656 C 56.027344 49.25 55.972656 48.660156 55.855469 48.074219 C 55.738281 47.488281 55.566406 46.917969 55.335938 46.367188 C 55.109375 45.8125 54.828125 45.289062 54.496094 44.792969 C 54.164062 44.296875 53.785156 43.835938 53.363281 43.414062 C 52.941406 42.992188 52.480469 42.613281 51.984375 42.28125 C 51.488281 41.949219 50.964844 41.667969 50.410156 41.441406 C 49.859375 41.210938 49.289062 41.039062 48.703125 40.921875 C 48.117188 40.804688 47.527344 40.746094 46.929688 40.746094 Z M 46.929688 40.746094 "/>
<path style=" stroke:none;fill-rule:nonzero;fill:rgb(85.099792%,85.099792%,85.099792%);fill-opacity:1;" d="M 46.929688 76.871094 C 46.332031 76.871094 45.738281 76.929688 45.152344 77.046875 C 44.566406 77.164062 43.996094 77.335938 43.445312 77.566406 C 42.894531 77.792969 42.371094 78.074219 41.871094 78.40625 C 41.375 78.738281 40.914062 79.117188 40.492188 79.539062 C 40.070312 79.960938 39.695312 80.421875 39.363281 80.917969 C 39.03125 81.414062 38.75 81.9375 38.519531 82.492188 C 38.292969 83.042969 38.121094 83.613281 38.003906 84.199219 C 37.886719 84.785156 37.828125 85.375 37.828125 85.972656 C 37.828125 86.570312 37.886719 87.164062 38.003906 87.75 C 38.121094 88.335938 38.292969 88.902344 38.519531 89.457031 C 38.75 90.007812 39.03125 90.53125 39.363281 91.027344 C 39.695312 91.527344 40.070312 91.984375 40.492188 92.40625 C 40.914062 92.832031 41.375 93.207031 41.871094 93.539062 C 42.371094 93.871094 42.894531 94.152344 43.445312 94.382812 C 43.996094 94.609375 44.566406 94.78125 45.152344 94.898438 C 45.738281 95.015625 46.332031 95.074219 46.929688 95.074219 C 47.527344 95.074219 48.117188 95.015625 48.703125 94.898438 C 49.289062 94.78125 49.859375 94.609375 50.410156 94.382812 C 50.964844 94.152344 51.488281 93.871094 51.984375 93.539062 C 52.480469 93.207031 52.941406 92.832031 53.363281 92.40625 C 53.785156 91.984375 54.164062 91.527344 54.496094 91.027344 C 54.828125 90.53125 55.109375 90.007812 55.335938 89.457031 C 55.566406 88.902344 55.738281 88.335938 55.855469 87.75 C 55.972656 87.164062 56.027344 86.570312 56.027344 85.972656 C 56.027344 85.375 55.972656 84.785156 55.855469 84.199219 C 55.738281 83.613281 55.566406 83.042969 55.335938 82.492188 C 55.109375 81.9375 54.828125 81.414062 54.496094 80.917969 C 54.164062 80.421875 53.785156 79.960938 53.363281 79.539062 C 52.941406 79.117188 52.480469 78.738281 51.984375 78.40625 C 51.488281 78.074219 50.964844 77.792969 50.410156 77.566406 C 49.859375 77.335938 49.289062 77.164062 48.703125 77.046875 C 48.117188 76.929688 47.527344 76.871094 46.929688 76.871094 Z M 46.929688 76.871094 "/>
<path style=" stroke:none;fill-rule:nonzero;fill:rgb(85.099792%,85.099792%,85.099792%);fill-opacity:1;" d="M 46.929688 110.132812 C 46.332031 110.132812 45.738281 110.191406 45.152344 110.308594 C 44.566406 110.425781 43.996094 110.597656 43.445312 110.824219 C 42.894531 111.054688 42.371094 111.335938 41.871094 111.667969 C 41.375 112 40.914062 112.375 40.492188 112.796875 C 40.070312 113.222656 39.695312 113.679688 39.363281 114.179688 C 39.03125 114.675781 38.75 115.199219 38.519531 115.75 C 38.292969 116.304688 38.121094 116.871094 38.003906 117.457031 C 37.886719 118.042969 37.828125 118.636719 37.828125 119.234375 C 37.828125 119.832031 37.886719 120.421875 38.003906 121.007812 C 38.121094 121.59375 38.292969 122.164062 38.519531 122.714844 C 38.75 123.269531 39.03125 123.792969 39.363281 124.289062 C 39.695312 124.785156 40.070312 125.246094 40.492188 125.667969 C 40.914062 126.089844 41.375 126.46875 41.871094 126.800781 C 42.371094 127.132812 42.894531 127.414062 43.445312 127.640625 C 43.996094 127.871094 44.566406 128.042969 45.152344 128.160156 C 45.738281 128.277344 46.332031 128.335938 46.929688 128.335938 C 47.527344 128.335938 48.117188 128.277344 48.703125 128.160156 C 49.289062 128.042969 49.859375 127.871094 50.410156 127.640625 C 50.964844 127.414062 51.488281 127.132812 51.984375 126.800781 C 52.480469 126.46875 52.941406 126.089844 53.363281 125.667969 C 53.785156 125.246094 54.164062 124.785156 54.496094 124.289062 C 54.828125 123.792969 55.109375 123.269531 55.335938 122.714844 C 55.566406 122.164062 55.738281 121.59375 55.855469 121.007812 C 55.972656 120.421875 56.027344 119.832031 56.027344 119.234375 C 56.027344 118.636719 55.972656 118.042969 55.855469 117.457031 C 55.738281 116.871094 55.566406 116.304688 55.335938 115.75 C 55.109375 115.199219 54.828125 114.675781 54.496094 114.179688 C 54.164062 113.679688 53.785156 113.222656 53.363281 112.796875 C 52.941406 112.375 52.480469 112 51.984375 111.667969 C 51.488281 111.335938 50.964844 111.054688 50.410156 110.824219 C 49.859375 110.597656 49.289062 110.425781 48.703125 110.308594 C 48.117188 110.191406 47.527344 110.132812 46.929688 110.132812 Z M 46.929688 110.132812 "/>
<path style=" stroke:none;fill-rule:nonzero;fill:rgb(85.099792%,85.099792%,85.099792%);fill-opacity:1;" d="M 46.929688 143.738281 C 46.332031 143.738281 45.738281 143.796875 45.152344 143.914062 C 44.566406 144.03125 43.996094 144.203125 43.445312 144.429688 C 42.894531 144.660156 42.371094 144.941406 41.871094 145.273438 C 41.375 145.605469 40.914062 145.980469 40.492188 146.40625 C 40.070312 146.828125 39.695312 147.285156 39.363281 147.785156 C 39.03125 148.28125 38.75 148.804688 38.519531 149.355469 C 38.292969 149.910156 38.121094 150.476562 38.003906 151.0625 C 37.886719 151.648438 37.828125 152.242188 37.828125 152.839844 C 37.828125 153.4375 37.886719 154.027344 38.003906 154.613281 C 38.121094 155.199219 38.292969 155.769531 38.519531 156.320312 C 38.75 156.875 39.03125 157.398438 39.363281 157.894531 C 39.695312 158.390625 40.070312 158.851562 40.492188 159.273438 C 40.914062 159.695312 41.375 160.074219 41.871094 160.40625 C 42.371094 160.738281 42.894531 161.019531 43.445312 161.246094 C 43.996094 161.476562 44.566406 161.648438 45.152344 161.765625 C 45.738281 161.882812 46.332031 161.941406 46.929688 161.941406 C 47.527344 161.941406 48.117188 161.882812 48.703125 161.765625 C 49.289062 161.648438 49.859375 161.476562 50.410156 161.246094 C 50.964844 161.019531 51.488281 160.738281 51.984375 160.40625 C 52.480469 160.074219 52.941406 159.695312 53.363281 159.273438 C 53.785156 158.851562 54.164062 158.390625 54.496094 157.894531 C 54.828125 157.398438 55.109375 156.875 55.335938 156.320312 C 55.566406 155.769531 55.738281 155.199219 55.855469 154.613281 C 55.972656 154.027344 56.027344 153.4375 56.027344 152.839844 C 56.027344 152.242188 55.972656 151.648438 55.855469 151.0625 C 55.738281 150.476562 55.566406 149.910156 55.335938 149.355469 C 55.109375 148.804688 54.828125 148.28125 54.496094 147.785156 C 54.164062 147.285156 53.785156 146.828125 53.363281 146.40625 C 52.941406 145.980469 52.480469 145.605469 51.984375 145.273438 C 51.488281 144.941406 50.964844 144.660156 50.410156 144.429688 C 49.859375 144.203125 49.289062 144.03125 48.703125 143.914062 C 48.117188 143.796875 47.527344 143.738281 46.929688 143.738281 Z M 46.929688 143.738281 "/>
<path style=" stroke:none;fill-rule:nonzero;fill:rgb(85.099792%,85.099792%,85.099792%);fill-opacity:1;" d="M 46.929688 175.105469 C 46.332031 175.105469 45.738281 175.164062 45.152344 175.277344 C 44.566406 175.394531 43.996094 175.566406 43.445312 175.796875 C 42.894531 176.027344 42.371094 176.304688 41.871094 176.636719 C 41.375 176.96875 40.914062 177.347656 40.492188 177.769531 C 40.070312 178.191406 39.695312 178.652344 39.363281 179.148438 C 39.03125 179.644531 38.75 180.171875 38.519531 180.722656 C 38.292969 181.273438 38.121094 181.84375 38.003906 182.429688 C 37.886719 183.015625 37.828125 183.605469 37.828125 184.203125 C 37.828125 184.800781 37.886719 185.394531 38.003906 185.980469 C 38.121094 186.566406 38.292969 187.136719 38.519531 187.6875 C 38.75 188.238281 39.03125 188.765625 39.363281 189.261719 C 39.695312 189.757812 40.070312 190.21875 40.492188 190.640625 C 40.914062 191.0625 41.375 191.441406 41.871094 191.773438 C 42.371094 192.105469 42.894531 192.382812 43.445312 192.613281 C 43.996094 192.839844 44.566406 193.015625 45.152344 193.128906 C 45.738281 193.246094 46.332031 193.304688 46.929688 193.304688 C 47.527344 193.304688 48.117188 193.246094 48.703125 193.128906 C 49.289062 193.015625 49.859375 192.839844 50.410156 192.613281 C 50.964844 192.382812 51.488281 192.105469 51.984375 191.773438 C 52.480469 191.441406 52.941406 191.0625 53.363281 190.640625 C 53.785156 190.21875 54.164062 189.757812 54.496094 189.261719 C 54.828125 188.765625 55.109375 188.238281 55.335938 187.6875 C 55.566406 187.136719 55.738281 186.566406 55.855469 185.980469 C 55.972656 185.394531 56.027344 184.800781 56.027344 184.203125 C 56.027344 183.605469 55.972656 183.015625 55.855469 182.429688 C 55.738281 181.84375 55.566406 181.273438 55.335938 180.722656 C 55.109375 180.171875 54.828125 179.644531 54.496094 179.148438 C 54.164062 178.652344 53.785156 178.191406 53.363281 177.769531 C 52.941406 177.347656 52.480469 176.96875 51.984375 176.636719 C 51.488281 176.304688 50.964844 176.027344 50.410156 175.796875 C 49.859375 175.566406 49.289062 175.394531 48.703125 175.277344 C 48.117188 175.164062 47.527344 175.105469 46.929688 175.105469 Z M 46.929688 175.105469 "/>
<path style=" stroke:none;fill-rule:nonzero;fill:rgb(85.099792%,85.099792%,85.099792%);fill-opacity:1;" d="M 46.929688 211.855469 C 46.332031 211.855469 45.738281 211.914062 45.152344 212.03125 C 44.566406 212.148438 43.996094 212.320312 43.445312 212.550781 C 42.894531 212.777344 42.371094 213.058594 41.871094 213.390625 C 41.375 213.722656 40.914062 214.097656 40.492188 214.523438 C 40.070312 214.945312 39.695312 215.40625 39.363281 215.902344 C 39.03125 216.398438 38.75 216.921875 38.519531 217.472656 C 38.292969 218.027344 38.121094 218.597656 38.003906 219.183594 C 37.886719 219.769531 37.828125 220.359375 37.828125 220.957031 C 37.828125 221.554688 37.886719 222.148438 38.003906 222.734375 C 38.121094 223.320312 38.292969 223.886719 38.519531 224.441406 C 38.75 224.992188 39.03125 225.515625 39.363281 226.011719 C 39.695312 226.511719 40.070312 226.96875 40.492188 227.390625 C 40.914062 227.816406 41.375 228.191406 41.871094 228.523438 C 42.371094 228.855469 42.894531 229.136719 43.445312 229.363281 C 43.996094 229.59375 44.566406 229.765625 45.152344 229.882812 C 45.738281 230 46.332031 230.058594 46.929688 230.058594 C 47.527344 230.058594 48.117188 230 48.703125 229.882812 C 49.289062 229.765625 49.859375 229.59375 50.410156 229.363281 C 50.964844 229.136719 51.488281 228.855469 51.984375 228.523438 C 52.480469 228.191406 52.941406 227.816406 53.363281 227.390625 C 53.785156 226.96875 54.164062 226.511719 54.496094 226.011719 C 54.828125 225.515625 55.109375 224.992188 55.335938 224.441406 C 55.566406 223.886719 55.738281 223.320312 55.855469 222.734375 C 55.972656 222.148438 56.027344 221.554688 56.027344 220.957031 C 56.027344 220.359375 55.972656 219.769531 55.855469 219.183594 C 55.738281 218.597656 55.566406 218.027344 55.335938 217.472656 C 55.109375 216.921875 54.828125 216.398438 54.496094 215.902344 C 54.164062 215.40625 53.785156 214.945312 53.363281 214.523438 C 52.941406 214.097656 52.480469 213.722656 51.984375 213.390625 C 51.488281 213.058594 50.964844 212.777344 50.410156 212.550781 C 49.859375 212.320312 49.289062 212.148438 48.703125 212.03125 C 48.117188 211.914062 47.527344 211.855469 46.929688 211.855469 Z M 46.929688 211.855469 "/>
<path style=" stroke:none;fill-rule:nonzero;fill:rgb(85.099792%,85.099792%,85.099792%);fill-opacity:1;" d="M 46.929688 245.179688 C 46.332031 245.179688 45.738281 245.238281 45.152344 245.355469 C 44.566406 245.472656 43.996094 245.644531 43.445312 245.875 C 42.894531 246.101562 42.371094 246.382812 41.871094 246.714844 C 41.375 247.046875 40.914062 247.421875 40.492188 247.847656 C 40.070312 248.269531 39.695312 248.726562 39.363281 249.226562 C 39.03125 249.722656 38.75 250.246094 38.519531 250.796875 C 38.292969 251.351562 38.121094 251.917969 38.003906 252.507812 C 37.886719 253.09375 37.828125 253.683594 37.828125 254.28125 C 37.828125 254.878906 37.886719 255.472656 38.003906 256.058594 C 38.121094 256.644531 38.292969 257.210938 38.519531 257.765625 C 38.75 258.316406 39.03125 258.839844 39.363281 259.335938 C 39.695312 259.835938 40.070312 260.292969 40.492188 260.714844 C 40.914062 261.140625 41.375 261.515625 41.871094 261.847656 C 42.371094 262.179688 42.894531 262.460938 43.445312 262.6875 C 43.996094 262.917969 44.566406 263.089844 45.152344 263.207031 C 45.738281 263.324219 46.332031 263.382812 46.929688 263.382812 C 47.527344 263.382812 48.117188 263.324219 48.703125 263.207031 C 49.289062 263.089844 49.859375 262.917969 50.410156 262.6875 C 50.964844 262.460938 51.488281 262.179688 51.984375 261.847656 C 52.480469 261.515625 52.941406 261.140625 53.363281 260.714844 C 53.785156 260.292969 54.164062 259.835938 54.496094 259.335938 C 54.828125 258.839844 55.109375 258.316406 55.335938 257.765625 C 55.566406 257.210938 55.738281 256.644531 55.855469 256.058594 C 55.972656 255.472656 56.027344 254.878906 56.027344 254.28125 C 56.027344 253.683594 55.972656 253.09375 55.855469 252.507812 C 55.738281 251.917969 55.566406 251.351562 55.335938 250.796875 C 55.109375 250.246094 54.828125 249.722656 54.496094 249.226562 C 54.164062 248.726562 53.785156 248.269531 53.363281 247.847656 C 52.941406 247.421875 52.480469 247.046875 51.984375 246.714844 C 51.488281 246.382812 50.964844 246.101562 50.410156 245.875 C 49.859375 245.644531 49.289062 245.472656 48.703125 245.355469 C 48.117188 245.238281 47.527344 245.179688 46.929688 245.179688 Z M 46.929688 245.179688 "/>
<path style=" stroke:none;fill-rule:nonzero;fill:rgb(85.099792%,85.099792%,85.099792%);fill-opacity:1;" d="M 46.929688 281.523438 C 46.332031 281.523438 45.738281 281.582031 45.152344 281.695312 C 44.566406 281.8125 43.996094 281.984375 43.445312 282.214844 C 42.894531 282.445312 42.371094 282.722656 41.871094 283.054688 C 41.375 283.386719 40.914062 283.765625 40.492188 284.1875 C 40.070312 284.609375 39.695312 285.070312 39.363281 285.566406 C 39.03125 286.0625 38.75 286.589844 38.519531 287.140625 C 38.292969 287.691406 38.121094 288.261719 38.003906 288.847656 C 37.886719 289.433594 37.828125 290.023438 37.828125 290.621094 C 37.828125 291.21875 37.886719 291.8125 38.003906 292.398438 C 38.121094 292.984375 38.292969 293.554688 38.519531 294.105469 C 38.75 294.65625 39.03125 295.183594 39.363281 295.679688 C 39.695312 296.175781 40.070312 296.636719 40.492188 297.058594 C 40.914062 297.480469 41.375 297.859375 41.871094 298.191406 C 42.371094 298.523438 42.894531 298.800781 43.445312 299.03125 C 43.996094 299.257812 44.566406 299.433594 45.152344 299.546875 C 45.738281 299.664062 46.332031 299.722656 46.929688 299.722656 C 47.527344 299.722656 48.117188 299.664062 48.703125 299.546875 C 49.289062 299.433594 49.859375 299.257812 50.410156 299.03125 C 50.964844 298.800781 51.488281 298.523438 51.984375 298.191406 C 52.480469 297.859375 52.941406 297.480469 53.363281 297.058594 C 53.785156 296.636719 54.164062 296.175781 54.496094 295.679688 C 54.828125 295.183594 55.109375 294.65625 55.335938 294.105469 C 55.566406 293.554688 55.738281 292.984375 55.855469 292.398438 C 55.972656 291.8125 56.027344 291.21875 56.027344 290.621094 C 56.027344 290.023438 55.972656 289.433594 55.855469 288.847656 C 55.738281 288.261719 55.566406 287.691406 55.335938 287.140625 C 55.109375 286.589844 54.828125 286.0625 54.496094 285.566406 C 54.164062 285.070312 53.785156 284.609375 53.363281 284.1875 C 52.941406 283.765625 52.480469 283.386719 51.984375 283.054688 C 51.488281 282.722656 50.964844 282.445312 50.410156 282.214844 C 49.859375 281.984375 49.289062 281.8125 48.703125 281.695312 C 48.117188 281.582031 47.527344 281.523438 46.929688 281.523438 Z M 46.929688 281.523438 "/>
<path style=" stroke:none;fill-rule:nonzero;fill:rgb(85.099792%,85.099792%,85.099792%);fill-opacity:1;" d="M 46.929688 319.609375 C 46.332031 319.609375 45.738281 319.667969 45.152344 319.785156 C 44.566406 319.898438 43.996094 320.074219 43.445312 320.300781 C 42.894531 320.53125 42.371094 320.808594 41.871094 321.140625 C 41.375 321.472656 40.914062 321.851562 40.492188 322.273438 C 40.070312 322.695312 39.695312 323.15625 39.363281 323.652344 C 39.03125 324.148438 38.75 324.675781 38.519531 325.226562 C 38.292969 325.777344 38.121094 326.347656 38.003906 326.933594 C 37.886719 327.519531 37.828125 328.113281 37.828125 328.710938 C 37.828125 329.308594 37.886719 329.898438 38.003906 330.484375 C 38.121094 331.070312 38.292969 331.640625 38.519531 332.191406 C 38.75 332.742188 39.03125 333.269531 39.363281 333.765625 C 39.695312 334.261719 40.070312 334.722656 40.492188 335.144531 C 40.914062 335.566406 41.375 335.945312 41.871094 336.277344 C 42.371094 336.609375 42.894531 336.886719 43.445312 337.117188 C 43.996094 337.347656 44.566406 337.519531 45.152344 337.636719 C 45.738281 337.75 46.332031 337.808594 46.929688 337.808594 C 47.527344 337.808594 48.117188 337.75 48.703125 337.636719 C 49.289062 337.519531 49.859375 337.347656 50.410156 337.117188 C 50.964844 336.886719 51.488281 336.609375 51.984375 336.277344 C 52.480469 335.945312 52.941406 335.566406 53.363281 335.144531 C 53.785156 334.722656 54.164062 334.261719 54.496094 333.765625 C 54.828125 333.269531 55.109375 332.742188 55.335938 332.191406 C 55.566406 331.640625 55.738281 331.070312 55.855469 330.484375 C 55.972656 329.898438 56.027344 329.308594 56.027344 328.710938 C 56.027344 328.113281 55.972656 327.519531 55.855469 326.933594 C 55.738281 326.347656 55.566406 325.777344 55.335938 325.226562 C 55.109375 324.675781 54.828125 324.148438 54.496094 323.652344 C 54.164062 323.15625 53.785156 322.695312 53.363281 322.273438 C 52.941406 321.851562 52.480469 321.472656 51.984375 321.140625 C 51.488281 320.808594 50.964844 320.53125 50.410156 320.300781 C 49.859375 320.074219 49.289062 319.898438 48.703125 319.785156 C 48.117188 319.667969 47.527344 319.609375 46.929688 319.609375 Z M 46.929688 319.609375 "/>
<path style=" stroke:none;fill-rule:nonzero;fill:rgb(85.099792%,85.099792%,85.099792%);fill-opacity:1;" d="M 46.929688 355.453125 C 46.332031 355.453125 45.738281 355.511719 45.152344 355.628906 C 44.566406 355.746094 43.996094 355.917969 43.445312 356.148438 C 42.894531 356.375 42.371094 356.65625 41.871094 356.988281 C 41.375 357.320312 40.914062 357.699219 40.492188 358.121094 C 40.070312 358.542969 39.695312 359.003906 39.363281 359.5 C 39.03125 359.996094 38.75 360.519531 38.519531 361.074219 C 38.292969 361.625 38.121094 362.195312 38.003906 362.78125 C 37.886719 363.367188 37.828125 363.957031 37.828125 364.554688 C 37.828125 365.152344 37.886719 365.746094 38.003906 366.332031 C 38.121094 366.917969 38.292969 367.484375 38.519531 368.039062 C 38.75 368.589844 39.03125 369.113281 39.363281 369.613281 C 39.695312 370.109375 40.070312 370.566406 40.492188 370.992188 C 40.914062 371.414062 41.375 371.789062 41.871094 372.121094 C 42.371094 372.453125 42.894531 372.734375 43.445312 372.964844 C 43.996094 373.191406 44.566406 373.363281 45.152344 373.480469 C 45.738281 373.597656 46.332031 373.65625 46.929688 373.65625 C 47.527344 373.65625 48.117188 373.597656 48.703125 373.480469 C 49.289062 373.363281 49.859375 373.191406 50.410156 372.964844 C 50.964844 372.734375 51.488281 372.453125 51.984375 372.121094 C 52.480469 371.789062 52.941406 371.414062 53.363281 370.992188 C 53.785156 370.566406 54.164062 370.109375 54.496094 369.613281 C 54.828125 369.113281 55.109375 368.589844 55.335938 368.039062 C 55.566406 367.484375 55.738281 366.917969 55.855469 366.332031 C 55.972656 365.746094 56.027344 365.152344 56.027344 364.554688 C 56.027344 363.957031 55.972656 363.367188 55.855469 362.78125 C 55.738281 362.195312 55.566406 361.625 55.335938 361.074219 C 55.109375 360.519531 54.828125 359.996094 54.496094 359.5 C 54.164062 359.003906 53.785156 358.542969 53.363281 358.121094 C 52.941406 357.699219 52.480469 357.320312 51.984375 356.988281 C 51.488281 356.65625 50.964844 356.375 50.410156 356.148438 C 49.859375 355.917969 49.289062 355.746094 48.703125 355.628906 C 48.117188 355.511719 47.527344 355.453125 46.929688 355.453125 Z M 46.929688 355.453125 "/>
<path style=" stroke:none;fill-rule:nonzero;fill:rgb(85.099792%,85.099792%,85.099792%);fill-opacity:1;" d="M 46.929688 390.179688 C 46.332031 390.179688 45.738281 390.238281 45.152344 390.355469 C 44.566406 390.472656 43.996094 390.644531 43.445312 390.875 C 42.894531 391.101562 42.371094 391.382812 41.871094 391.714844 C 41.375 392.046875 40.914062 392.421875 40.492188 392.847656 C 40.070312 393.269531 39.695312 393.726562 39.363281 394.226562 C 39.03125 394.722656 38.75 395.246094 38.519531 395.796875 C 38.292969 396.351562 38.121094 396.917969 38.003906 397.503906 C 37.886719 398.089844 37.828125 398.683594 37.828125 399.28125 C 37.828125 399.878906 37.886719 400.46875 38.003906 401.054688 C 38.121094 401.644531 38.292969 402.210938 38.519531 402.765625 C 38.75 403.316406 39.03125 403.839844 39.363281 404.335938 C 39.695312 404.835938 40.070312 405.292969 40.492188 405.714844 C 40.914062 406.140625 41.375 406.515625 41.871094 406.847656 C 42.371094 407.179688 42.894531 407.460938 43.445312 407.6875 C 43.996094 407.917969 44.566406 408.089844 45.152344 408.207031 C 45.738281 408.324219 46.332031 408.382812 46.929688 408.382812 C 47.527344 408.382812 48.117188 408.324219 48.703125 408.207031 C 49.289062 408.089844 49.859375 407.917969 50.410156 407.6875 C 50.964844 407.460938 51.488281 407.179688 51.984375 406.847656 C 52.480469 406.515625 52.941406 406.140625 53.363281 405.714844 C 53.785156 405.292969 54.164062 404.835938 54.496094 404.335938 C 54.828125 403.839844 55.109375 403.316406 55.335938 402.765625 C 55.566406 402.210938 55.738281 401.644531 55.855469 401.054688 C 55.972656 400.46875 56.027344 399.878906 56.027344 399.28125 C 56.027344 398.683594 55.972656 398.089844 55.855469 397.503906 C 55.738281 396.917969 55.566406 396.351562 55.335938 395.796875 C 55.109375 395.246094 54.828125 394.722656 54.496094 394.226562 C 54.164062 393.726562 53.785156 393.269531 53.363281 392.847656 C 52.941406 392.421875 52.480469 392.046875 51.984375 391.714844 C 51.488281 391.382812 50.964844 391.101562 50.410156 390.875 C 49.859375 390.644531 49.289062 390.472656 48.703125 390.355469 C 48.117188 390.238281 47.527344 390.179688 46.929688 390.179688 Z M 46.929688 390.179688 "/>
<path style=" stroke:none;fill-rule:nonzero;fill:rgb(85.099792%,85.099792%,85.099792%);fill-opacity:1;" d="M 46.929688 422.589844 C 46.332031 422.589844 45.738281 422.648438 45.152344 422.765625 C 44.566406 422.882812 43.996094 423.054688 43.445312 423.28125 C 42.894531 423.511719 42.371094 423.792969 41.871094 424.125 C 41.375 424.457031 40.914062 424.832031 40.492188 425.253906 C 40.070312 425.679688 39.695312 426.136719 39.363281 426.636719 C 39.03125 427.132812 38.75 427.65625 38.519531 428.207031 C 38.292969 428.761719 38.121094 429.328125 38.003906 429.914062 C 37.886719 430.5 37.828125 431.09375 37.828125 431.691406 C 37.828125 432.289062 37.886719 432.878906 38.003906 433.464844 C 38.121094 434.050781 38.292969 434.621094 38.519531 435.171875 C 38.75 435.726562 39.03125 436.25 39.363281 436.746094 C 39.695312 437.242188 40.070312 437.703125 40.492188 438.125 C 40.914062 438.546875 41.375 438.925781 41.871094 439.257812 C 42.371094 439.589844 42.894531 439.871094 43.445312 440.097656 C 43.996094 440.328125 44.566406 440.5 45.152344 440.617188 C 45.738281 440.734375 46.332031 440.792969 46.929688 440.792969 C 47.527344 440.792969 48.117188 440.734375 48.703125 440.617188 C 49.289062 440.5 49.859375 440.328125 50.410156 440.097656 C 50.964844 439.871094 51.488281 439.589844 51.984375 439.257812 C 52.480469 438.925781 52.941406 438.546875 53.363281 438.125 C 53.785156 437.703125 54.164062 437.242188 54.496094 436.746094 C 54.828125 436.25 55.109375 435.726562 55.335938 435.171875 C 55.566406 434.621094 55.738281 434.050781 55.855469 433.464844 C 55.972656 432.878906 56.027344 432.289062 56.027344 431.691406 C 56.027344 431.09375 55.972656 430.5 55.855469 429.914062 C 55.738281 429.328125 55.566406 428.761719 55.335938 428.207031 C 55.109375 427.65625 54.828125 427.132812 54.496094 426.636719 C 54.164062 426.136719 53.785156 425.679688 53.363281 425.253906 C 52.941406 424.832031 52.480469 424.457031 51.984375 424.125 C 51.488281 423.792969 50.964844 423.511719 50.410156 423.28125 C 49.859375 423.054688 49.289062 422.882812 48.703125 422.765625 C 48.117188 422.648438 47.527344 422.589844 46.929688 422.589844 Z M 46.929688 422.589844 "/>
<path style=" stroke:none;fill-rule:nonzero;fill:rgb(85.099792%,85.099792%,85.099792%);fill-opacity:1;" d="M 46.929688 459.632812 C 46.332031 459.632812 45.738281 459.691406 45.152344 459.808594 C 44.566406 459.921875 43.996094 460.097656 43.445312 460.324219 C 42.894531 460.554688 42.371094 460.832031 41.871094 461.164062 C 41.375 461.496094 40.914062 461.875 40.492188 462.296875 C 40.070312 462.71875 39.695312 463.179688 39.363281 463.675781 C 39.03125 464.171875 38.75 464.699219 38.519531 465.25 C 38.292969 465.800781 38.121094 466.371094 38.003906 466.957031 C 37.886719 467.542969 37.828125 468.136719 37.828125 468.734375 C 37.828125 469.332031 37.886719 469.921875 38.003906 470.507812 C 38.121094 471.09375 38.292969 471.664062 38.519531 472.214844 C 38.75 472.769531 39.03125 473.292969 39.363281 473.789062 C 39.695312 474.285156 40.070312 474.746094 40.492188 475.167969 C 40.914062 475.589844 41.375 475.96875 41.871094 476.300781 C 42.371094 476.632812 42.894531 476.914062 43.445312 477.140625 C 43.996094 477.371094 44.566406 477.542969 45.152344 477.660156 C 45.738281 477.773438 46.332031 477.832031 46.929688 477.832031 C 47.527344 477.832031 48.117188 477.773438 48.703125 477.660156 C 49.289062 477.542969 49.859375 477.371094 50.410156 477.140625 C 50.964844 476.914062 51.488281 476.632812 51.984375 476.300781 C 52.480469 475.96875 52.941406 475.589844 53.363281 475.167969 C 53.785156 474.746094 54.164062 474.285156 54.496094 473.789062 C 54.828125 473.292969 55.109375 472.769531 55.335938 472.214844 C 55.566406 471.664062 55.738281 471.09375 55.855469 470.507812 C 55.972656 469.921875 56.027344 469.332031 56.027344 468.734375 C 56.027344 468.136719 55.972656 467.542969 55.855469 466.957031 C 55.738281 466.371094 55.566406 465.800781 55.335938 465.25 C 55.109375 464.699219 54.828125 464.171875 54.496094 463.675781 C 54.164062 463.179688 53.785156 462.71875 53.363281 462.296875 C 52.941406 461.875 52.480469 461.496094 51.984375 461.164062 C 51.488281 460.832031 50.964844 460.554688 50.410156 460.324219 C 49.859375 460.097656 49.289062 459.921875 48.703125 459.808594 C 48.117188 459.691406 47.527344 459.632812 46.929688 459.632812 Z M 46.929688 459.632812 "/>
<path style="fill:none;stroke-width:1;stroke-linecap:round;stroke-linejoin:miter;stroke:rgb(10.978699%,61.569214%,84.309387%);stroke-opacity:1;stroke-miterlimit:4;" d="M 0.497969 -0.0010076 L 649.636741 -0.0010076 " transform="matrix(-0.749087,-0.000000000000000092,0.00000000000000009,-0.732074,514.919897,113.182856)"/>
<path style="fill:none;stroke-width:1;stroke-linecap:round;stroke-linejoin:miter;stroke:rgb(10.978699%,61.569214%,84.309387%);stroke-opacity:1;stroke-miterlimit:4;" d="M 0.497969 -0.00142871 L 649.636741 -0.00142871 " transform="matrix(-0.749087,-0.000000000000000092,0.00000000000000009,-0.732074,514.919897,128.75286)"/>
<path style="fill:none;stroke-width:1;stroke-linecap:round;stroke-linejoin:miter;stroke:rgb(10.978699%,61.569214%,84.309387%);stroke-opacity:1;stroke-miterlimit:4;" d="M 0.497969 -0.000486141 L 649.636741 -0.000486141 " transform="matrix(-0.749087,-0.000000000000000092,0.00000000000000009,-0.732074,514.919897,143.390269)"/>
<path style="fill:none;stroke-width:1;stroke-linecap:round;stroke-linejoin:miter;stroke:rgb(88.238525%,6.669617%,6.669617%);stroke-opacity:1;stroke-miterlimit:4;" d="M 0.500635 -0.00210864 L 649.498965 -0.00210864 " transform="matrix(0.000000000000000046,0.749232,-0.732074,0.000000000000000045,71.361738,-0.0000914589)"/>
<path style="fill:none;stroke-width:1;stroke-linecap:round;stroke-linejoin:miter;stroke:rgb(10.978699%,61.569214%,84.309387%);stroke-opacity:1;stroke-miterlimit:4;" d="M 0.497969 -0.00203995 L 649.636741 -0.00203995 " transform="matrix(-0.749087,-0.000000000000000092,0.00000000000000009,-0.732074,514.919897,94.725069)"/>
<path style="fill:none;stroke-width:1;stroke-linecap:round;stroke-linejoin:miter;stroke:rgb(88.238525%,6.669617%,6.669617%);stroke-opacity:1;stroke-miterlimit:4;" d="M 0.500635 -0.00181762 L 649.498965 -0.00181762 " transform="matrix(0.000000000000000046,0.749232,-0.732074,0.000000000000000045,84.127576,-0.0000914589)"/>
<path style="fill:none;stroke-width:1;stroke-linecap:round;stroke-linejoin:miter;stroke:rgb(10.978699%,61.569214%,84.309387%);stroke-opacity:1;stroke-miterlimit:4;" d="M 0.497969 -0.00263113 L 649.636741 -0.00263113 " transform="matrix(-0.749087,-0.000000000000000092,0.00000000000000009,-0.732074,514.919897,158.193386)"/>
<path style="fill:none;stroke-width:1;stroke-linecap:round;stroke-linejoin:miter;stroke:rgb(10.978699%,61.569214%,84.309387%);stroke-opacity:1;stroke-miterlimit:4;" d="M 0.497969 0.00229018 L 649.636741 0.00229018 " transform="matrix(-0.749087,-0.000000000000000092,0.00000000000000009,-0.732074,514.919897,173.763395)"/>
<path style="fill:none;stroke-width:1;stroke-linecap:round;stroke-linejoin:miter;stroke:rgb(10.978699%,61.569214%,84.309387%);stroke-opacity:1;stroke-miterlimit:4;" d="M 0.497969 -0.0000978172 L 649.636741 -0.0000978172 " transform="matrix(-0.749087,-0.000000000000000092,0.00000000000000009,-0.732074,514.919897,189.468678)"/>
<path style="fill:none;stroke-width:1;stroke-linecap:round;stroke-linejoin:miter;stroke:rgb(10.978699%,61.569214%,84.309387%);stroke-opacity:1;stroke-miterlimit:4;" d="M 0.497969 0.00122459 L 649.636741 0.00122459 " transform="matrix(-0.749087,-0.000000000000000092,0.00000000000000009,-0.732074,514.919897,205.805584)"/>
<path style="fill:none;stroke-width:1;stroke-linecap:round;stroke-linejoin:miter;stroke:rgb(10.978699%,61.569214%,84.309387%);stroke-opacity:1;stroke-miterlimit:4;" d="M 0.497969 -0.00202511 L 649.636741 -0.00202511 " transform="matrix(-0.749087,-0.000000000000000092,0.00000000000000009,-0.732074,514.919897,222.025861)"/>
<path style="fill:none;stroke-width:1;stroke-linecap:round;stroke-linejoin:miter;stroke:rgb(10.978699%,61.569214%,84.309387%);stroke-opacity:1;stroke-miterlimit:4;" d="M 0.497969 -0.00241675 L 649.636741 -0.00241675 " transform="matrix(-0.749087,-0.000000000000000092,0.00000000000000009,-0.732074,514.919897,237.595887)"/>
<path style="fill:none;stroke-width:1;stroke-linecap:round;stroke-linejoin:miter;stroke:rgb(10.978699%,61.569214%,84.309387%);stroke-opacity:1;stroke-miterlimit:4;" d="M 0.497969 0.000619715 L 649.636741 0.000619715 " transform="matrix(-0.749087,-0.000000000000000092,0.00000000000000009,-0.732074,514.919897,254.699672)"/>
<path style="fill:none;stroke-width:1;stroke-linecap:round;stroke-linejoin:miter;stroke:rgb(10.978699%,61.569214%,84.309387%);stroke-opacity:1;stroke-miterlimit:4;" d="M 0.497969 -0.000269439 L 649.636741 -0.000269439 " transform="matrix(-0.749087,-0.000000000000000092,0.00000000000000009,-0.732074,514.919897,273.937303)"/>
<path style="fill:none;stroke-width:1;stroke-linecap:round;stroke-linejoin:miter;stroke:rgb(10.978699%,61.569214%,84.309387%);stroke-opacity:1;stroke-miterlimit:4;" d="M 0.497969 0.00105297 L 649.636741 0.00105297 " transform="matrix(-0.749087,-0.000000000000000092,0.00000000000000009,-0.732074,514.919897,290.274208)"/>
<path style="fill:none;stroke-width:1;stroke-linecap:round;stroke-linejoin:miter;stroke:rgb(10.978699%,61.569214%,84.309387%);stroke-opacity:1;stroke-miterlimit:4;" d="M 0.497969 -0.00225433 L 649.636741 -0.00225433 " transform="matrix(-0.749087,-0.000000000000000092,0.00000000000000009,-0.732074,514.919897,307.088193)"/>
<path style="fill:none;stroke-width:1;stroke-linecap:round;stroke-linejoin:miter;stroke:rgb(10.978699%,61.569214%,84.309387%);stroke-opacity:1;stroke-miterlimit:4;" d="M 0.497969 -0.0000376306 L 649.636741 -0.0000376306 " transform="matrix(-0.749087,-0.000000000000000092,0.00000000000000009,-0.732074,514.919897,327.593722)"/>
<path style="fill:none;stroke-width:1;stroke-linecap:round;stroke-linejoin:miter;stroke:rgb(10.978699%,61.569214%,84.309387%);stroke-opacity:1;stroke-miterlimit:4;" d="M 0.497969 -0.00180704 L 649.636741 -0.00180704 " transform="matrix(-0.749087,-0.000000000000000092,0.00000000000000009,-0.732074,514.919897,347.869771)"/>
<path style="fill:none;stroke-width:1;stroke-linecap:round;stroke-linejoin:miter;stroke:rgb(10.978699%,61.569214%,84.309387%);stroke-opacity:1;stroke-miterlimit:4;" d="M 0.497969 -0.000586699 L 649.636741 -0.000586699 " transform="matrix(-0.749087,-0.000000000000000092,0.00000000000000009,-0.732074,514.919897,367.792539)"/>
<path style="fill:none;stroke-width:1;stroke-linecap:round;stroke-linejoin:miter;stroke:rgb(10.978699%,61.569214%,84.309387%);stroke-opacity:1;stroke-miterlimit:4;" d="M 0.497969 0.00147558 L 649.636741 0.00147558 " transform="matrix(-0.749087,-0.000000000000000092,0.00000000000000009,-0.732074,514.919897,390.598736)"/>
<path style="fill:none;stroke-width:1;stroke-linecap:round;stroke-linejoin:miter;stroke:rgb(10.978699%,61.569214%,84.309387%);stroke-opacity:1;stroke-miterlimit:4;" d="M 0.497969 0.00172594 L 649.636741 0.00172594 " transform="matrix(-0.749087,-0.000000000000000092,0.00000000000000009,-0.732074,514.919897,413.735639)"/>
<path style="fill:none;stroke-width:1;stroke-linecap:round;stroke-linejoin:miter;stroke:rgb(10.978699%,61.569214%,84.309387%);stroke-opacity:1;stroke-miterlimit:4;" d="M 0.497969 -0.00015074 L 649.636741 -0.00015074 " transform="matrix(-0.749087,-0.000000000000000092,0.00000000000000009,-0.732074,514.919897,432.109265)"/>
<path style="fill:none;stroke-width:1;stroke-linecap:round;stroke-linejoin:miter;stroke:rgb(10.978699%,61.569214%,84.309387%);stroke-opacity:1;stroke-miterlimit:4;" d="M 0.497969 -0.000143372 L 649.636741 -0.000143372 " transform="matrix(-0.749087,-0.000000000000000092,0.00000000000000009,-0.732074,514.919897,452.878801)"/>
<path style="fill:none;stroke-width:1;stroke-linecap:round;stroke-linejoin:miter;stroke:rgb(10.978699%,61.569214%,84.309387%);stroke-opacity:1;stroke-miterlimit:4;" d="M 0.497969 -0.00159692 L 649.636741 -0.00159692 " transform="matrix(-0.749087,-0.000000000000000092,0.00000000000000009,-0.732074,514.919897,469.151175)"/>
</g>
</svg>
