<?xml version="1.0" encoding="UTF-8"?>
<svg xmlns="http://www.w3.org/2000/svg" xmlns:xlink="http://www.w3.org/1999/xlink" width="375pt" height="374.999991pt" viewBox="0 0 375 374.999991" version="1.2">
<g id="surface1">
<path style=" stroke:none;fill-rule:nonzero;fill:rgb(100%,8.628845%,8.628845%);fill-opacity:1;" d="M 123.492188 0 L 106.460938 17.046875 L 21.304688 17.046875 L 21.304688 51.136719 L 293.804688 51.136719 L 293.804688 17.046875 L 208.648438 17.046875 L 191.617188 0 Z M 38.335938 85.226562 L 38.335938 306.816406 C 38.335938 325.566406 53.664062 340.910156 72.398438 340.910156 L 195.375 340.910156 L 229.605469 306.816406 L 191.617188 306.816406 L 191.617188 119.316406 L 225.679688 119.316406 L 225.679688 238.269531 L 233.597656 230.378906 L 245.636719 218.328125 C 252.296875 211.664062 263.078125 211.664062 269.722656 218.328125 L 276.773438 225.386719 L 276.773438 85.226562 Z M 89.429688 119.316406 L 123.492188 119.316406 L 123.492188 306.816406 L 89.429688 306.816406 Z M 257.679688 254.484375 L 233.597656 278.585938 L 269.722656 314.742188 L 233.597656 350.898438 L 257.679688 375 L 293.804688 338.84375 L 329.929688 375 L 354.015625 350.898438 L 317.890625 314.742188 L 354.015625 278.585938 L 329.929688 254.484375 L 293.804688 290.636719 Z M 257.679688 254.484375 "/>
</g>
</svg>
